M48
; DRILL file KiCad 10.0.5 date 2026-09-22T21:30:49
; FORMAT={-:-/ absolute / metric / decimal}
; #@! TF.CreationDate,2026-09-22T21:30:49-04:00
; #@! TF.GenerationSoftware,Kicad,Pcbnew,10.0.5
; #@! TF.FileFunction,Plated,1,2,PTH
FMAT,2
METRIC
; #@! TA.AperFunction,Plated,PTH,ComponentDrill
T1C0.700
; #@! TA.AperFunction,Plated,PTH,ComponentDrill
T2C0.750
; #@! TA.AperFunction,Plated,PTH,ComponentDrill
T3C0.800
; #@! TA.AperFunction,Plated,PTH,ComponentDrill
T4C0.900
; #@! TA.AperFunction,Plated,PTH,ComponentDrill
T5C1.100
%
G90
G05
T1
X162.46Y-64.55
X163.19Y-84.92
X167.54Y-64.55
X168.27Y-84.92
X173.56Y-64.51
X173.63Y-84.89
X178.64Y-64.51
X178.71Y-84.89
X183.15Y-84.94
X183.31Y-64.28
X188.23Y-84.94
X188.39Y-64.28
X191.83Y-64.14
X192.4Y-84.9
X196.91Y-64.14
X197.48Y-84.9
T2
X164.82Y-78.08
X166.09Y-78.08
X167.36Y-78.08
X174.95Y-78.57
X176.22Y-78.57
X177.49Y-78.57
X184.54Y-78.67
X185.81Y-78.67
X187.08Y-78.67
X193.9Y-78.83
X195.17Y-78.83
X196.44Y-78.83
T3
X166.68Y-56.48
X169.18Y-56.48
X172.64Y-56.38
X175.14Y-56.38
X178.61Y-56.35
X181.11Y-56.35
X184.47Y-56.16
X186.97Y-56.16
T4
X164.77Y-70.47
X167.31Y-70.47
X174.69Y-70.68
X177.23Y-70.68
X184.56Y-70.54
X187.1Y-70.54
X193.91Y-70.57
X196.45Y-70.57
T5
X190.49Y-52.84
X190.49Y-57.34
X196.99Y-52.84
X196.99Y-57.34
M30
