%TF.GenerationSoftware,KiCad,Pcbnew,10.0.5*%
%TF.CreationDate,2026-09-22T21:30:43-04:00*%
%TF.ProjectId,LED chaser,4c454420-6368-4617-9365-722e6b696361,rev?*%
%TF.SameCoordinates,Original*%
%TF.FileFunction,Soldermask,Top*%
%TF.FilePolarity,Negative*%
%FSLAX46Y46*%
G04 Gerber Fmt 4.6, Leading zero omitted, Abs format (unit mm)*
G04 Created by KiCad (PCBNEW 10.0.5) date 2026-09-22 21:30:43*
%MOMM*%
%LPD*%
G01*
G04 APERTURE LIST*
%ADD10C,1.400000*%
%ADD11R,1.800000X1.800000*%
%ADD12C,1.800000*%
%ADD13C,1.600000*%
%ADD14O,1.050000X1.500000*%
%ADD15R,1.050000X1.500000*%
%ADD16R,2.540000X3.510000*%
%ADD17C,2.000000*%
%TA.AperFunction,ComponentPad*%
%ADD18C,1.400000*%
%TD*%
%TA.AperFunction,ComponentPad*%
%ADD19R,1.800000X1.800000*%
%TD*%
%TA.AperFunction,ComponentPad*%
%ADD20C,1.800000*%
%TD*%
%TA.AperFunction,ComponentPad*%
%ADD21C,1.600000*%
%TD*%
%TA.AperFunction,ComponentPad*%
%ADD22O,1.050000X1.500000*%
%TD*%
%TA.AperFunction,ComponentPad*%
%ADD23R,1.050000X1.500000*%
%TD*%
%TA.AperFunction,ComponentPad*%
%ADD24C,2.000000*%
%TD*%
%TA.AperFunction,Conductor*%
%ADD25C,0.200000*%
%TD*%
%ADD26C,0.000000*%
%TA.AperFunction,SMDPad,CuDef*%
%ADD27R,2.540000X3.510000*%
%TD*%
%ADD28C,0.150000*%
%ADD29C,0.120000*%
%TA.AperFunction,Profile*%
%ADD30C,0.050000*%
%TD*%
G04 APERTURE END LIST*
D10*
%TO.C,R5*%
X167540000Y-64550000D03*
X162460000Y-64550000D03*
%TD*%
D11*
%TO.C,D4*%
X193910000Y-70570000D03*
D12*
X196450000Y-70570000D03*
%TD*%
D11*
%TO.C,D3*%
X184560000Y-70540000D03*
D12*
X187100000Y-70540000D03*
%TD*%
D11*
%TO.C,D2*%
X174690000Y-70680000D03*
D12*
X177230000Y-70680000D03*
%TD*%
D11*
%TO.C,D1*%
X164770000Y-70470000D03*
D12*
X167310000Y-70470000D03*
%TD*%
D13*
%TO.C,C4*%
X186970000Y-56160000D03*
X184470000Y-56160000D03*
%TD*%
%TO.C,C3*%
X178610000Y-56350000D03*
X181110000Y-56350000D03*
%TD*%
%TO.C,C1*%
X166680000Y-56480000D03*
X169180000Y-56480000D03*
%TD*%
%TO.C,C2*%
X172640000Y-56380000D03*
X175140000Y-56380000D03*
%TD*%
D10*
%TO.C,R8*%
X196910000Y-64140000D03*
X191830000Y-64140000D03*
%TD*%
%TO.C,R7*%
X183310000Y-64280000D03*
X188390000Y-64280000D03*
%TD*%
%TO.C,R6*%
X178640000Y-64510000D03*
X173560000Y-64510000D03*
%TD*%
%TO.C,R4*%
X197480000Y-84900000D03*
X192400000Y-84900000D03*
%TD*%
%TO.C,R3*%
X188230000Y-84940000D03*
X183150000Y-84940000D03*
%TD*%
%TO.C,R2*%
X178710000Y-84890000D03*
X173630000Y-84890000D03*
%TD*%
%TO.C,R1*%
X168270000Y-84920000D03*
X163190000Y-84920000D03*
%TD*%
D14*
%TO.C,Q1*%
X164820000Y-78080000D03*
X166090000Y-78080000D03*
D15*
X167360000Y-78080000D03*
%TD*%
D14*
%TO.C,Q2*%
X177490000Y-78570000D03*
X176220000Y-78570000D03*
D15*
X174950000Y-78570000D03*
%TD*%
D14*
%TO.C,Q3*%
X187080000Y-78670000D03*
X185810000Y-78670000D03*
D15*
X184540000Y-78670000D03*
%TD*%
D14*
%TO.C,Q4*%
X196440000Y-78830000D03*
X195170000Y-78830000D03*
D15*
X193900000Y-78830000D03*
%TD*%
D16*
%TO.C,BT2*%
X202860000Y-79350000D03*
X232220000Y-79350000D03*
%TD*%
D17*
%TO.C,SW1*%
X196990000Y-57340000D03*
X190490000Y-57340000D03*
X196990000Y-52840000D03*
X190490000Y-52840000D03*
%TD*%
D16*
%TO.C,BT1*%
X202800000Y-54730000D03*
X232160000Y-54730000D03*
%TD*%
D18*
%TO.P,R5,1*%
%TO.N,Net-(D1-A)*%
X167540000Y-64550000D03*
%TO.P,R5,2*%
%TO.N,VCC*%
X162460000Y-64550000D03*
%TD*%
D19*
%TO.P,D4,1,K_1*%
%TO.N,Net-(D4-K)*%
X193910000Y-70570000D03*
D20*
%TO.P,D4,2,A_2*%
%TO.N,Net-(D4-A)*%
X196450000Y-70570000D03*
%TD*%
D19*
%TO.P,D3,1,K_1*%
%TO.N,Net-(D3-K)*%
X184560000Y-70540000D03*
D20*
%TO.P,D3,2,A_2*%
%TO.N,Net-(D3-A)*%
X187100000Y-70540000D03*
%TD*%
D19*
%TO.P,D2,1,K_1*%
%TO.N,Net-(D2-K)*%
X174690000Y-70680000D03*
D20*
%TO.P,D2,2,A_2*%
%TO.N,Net-(D2-A)*%
X177230000Y-70680000D03*
%TD*%
D19*
%TO.P,D1,1,K_1*%
%TO.N,Net-(D1-K)*%
X164770000Y-70470000D03*
D20*
%TO.P,D1,2,A_2*%
%TO.N,Net-(D1-A)*%
X167310000Y-70470000D03*
%TD*%
D21*
%TO.P,C4,2*%
%TO.N,Net-(D4-K)*%
X186970000Y-56160000D03*
%TO.P,C4,1*%
%TO.N,Net-(Q1-B)*%
X184470000Y-56160000D03*
%TD*%
%TO.P,C3,2*%
%TO.N,Net-(D3-K)*%
X178610000Y-56350000D03*
%TO.P,C3,1*%
%TO.N,Net-(Q4-B)*%
X181110000Y-56350000D03*
%TD*%
%TO.P,C1,2*%
%TO.N,Net-(D1-K)*%
X166680000Y-56480000D03*
%TO.P,C1,1*%
%TO.N,Net-(Q2-B)*%
X169180000Y-56480000D03*
%TD*%
%TO.P,C2,2*%
%TO.N,Net-(D2-K)*%
X172640000Y-56380000D03*
%TO.P,C2,1*%
%TO.N,Net-(Q3-B)*%
X175140000Y-56380000D03*
%TD*%
D18*
%TO.P,R8,2*%
%TO.N,VCC*%
X196910000Y-64140000D03*
%TO.P,R8,1*%
%TO.N,Net-(D4-A)*%
X191830000Y-64140000D03*
%TD*%
%TO.P,R7,2*%
%TO.N,VCC*%
X183310000Y-64280000D03*
%TO.P,R7,1*%
%TO.N,Net-(D3-A)*%
X188390000Y-64280000D03*
%TD*%
%TO.P,R6,1*%
%TO.N,Net-(D2-A)*%
X178640000Y-64510000D03*
%TO.P,R6,2*%
%TO.N,VCC*%
X173560000Y-64510000D03*
%TD*%
%TO.P,R4,2*%
%TO.N,Net-(Q4-B)*%
X197480000Y-84900000D03*
%TO.P,R4,1*%
%TO.N,VCC*%
X192400000Y-84900000D03*
%TD*%
%TO.P,R3,2*%
%TO.N,Net-(Q3-B)*%
X188230000Y-84940000D03*
%TO.P,R3,1*%
%TO.N,VCC*%
X183150000Y-84940000D03*
%TD*%
%TO.P,R2,2*%
%TO.N,Net-(Q2-B)*%
X178710000Y-84890000D03*
%TO.P,R2,1*%
%TO.N,VCC*%
X173630000Y-84890000D03*
%TD*%
%TO.P,R1,2*%
%TO.N,Net-(Q1-B)*%
X168270000Y-84920000D03*
%TO.P,R1,1*%
%TO.N,VCC*%
X163190000Y-84920000D03*
%TD*%
D22*
%TO.P,Q1,3,C_3*%
%TO.N,Net-(D1-K)*%
X164820000Y-78080000D03*
%TO.P,Q1,2,B_2*%
%TO.N,Net-(Q1-B)*%
X166090000Y-78080000D03*
D23*
%TO.P,Q1,1,E_1*%
%TO.N,GND*%
X167360000Y-78080000D03*
%TD*%
D22*
%TO.P,Q2,3,C_3*%
%TO.N,Net-(D2-K)*%
X177490000Y-78570000D03*
%TO.P,Q2,2,B_2*%
%TO.N,Net-(Q2-B)*%
X176220000Y-78570000D03*
D23*
%TO.P,Q2,1,E_1*%
%TO.N,GND*%
X174950000Y-78570000D03*
%TD*%
D22*
%TO.P,Q3,3,C_3*%
%TO.N,Net-(D3-K)*%
X187080000Y-78670000D03*
%TO.P,Q3,2,B_2*%
%TO.N,Net-(Q3-B)*%
X185810000Y-78670000D03*
D23*
%TO.P,Q3,1,E_1*%
%TO.N,GND*%
X184540000Y-78670000D03*
%TD*%
D22*
%TO.P,Q4,3,C_3*%
%TO.N,Net-(D4-K)*%
X196440000Y-78830000D03*
%TO.P,Q4,2,B_2*%
%TO.N,Net-(Q4-B)*%
X195170000Y-78830000D03*
D23*
%TO.P,Q4,1,E_1*%
%TO.N,GND*%
X193900000Y-78830000D03*
%TD*%
D24*
%TO.P,SW1,2,2_2*%
%TO.N,VCC*%
X196990000Y-57340000D03*
X190490000Y-57340000D03*
%TO.P,SW1,1,1_1*%
%TO.N,Net-(BT1-+)*%
X196990000Y-52840000D03*
X190490000Y-52840000D03*
%TD*%
%TO.N,Net-(Q2-B)*%
D25*
X166550000Y-53850000D02*
X169180000Y-56480000D01*
X162450000Y-53850000D02*
X166550000Y-53850000D01*
X160470000Y-83520000D02*
X160470000Y-55830000D01*
X161200000Y-84250000D02*
X160470000Y-83520000D01*
X161200000Y-87300000D02*
X161200000Y-84250000D01*
X162840000Y-88940000D02*
X161200000Y-87300000D01*
X174660000Y-88940000D02*
X162840000Y-88940000D01*
X160470000Y-55830000D02*
X162450000Y-53850000D01*
X178710000Y-84890000D02*
X174660000Y-88940000D01*
%TO.N,VCC*%
X172590000Y-65480000D02*
X173560000Y-64510000D01*
X172590000Y-83850000D02*
X172590000Y-65480000D01*
X173630000Y-84890000D02*
X172590000Y-83850000D01*
%TO.N,Net-(Q3-B)*%
X181100000Y-62340000D02*
X175140000Y-56380000D01*
X181100000Y-71540000D02*
X181100000Y-62340000D01*
X185810000Y-78670000D02*
X185810000Y-76250000D01*
X185810000Y-76250000D02*
X181100000Y-71540000D01*
%TO.N,Net-(Q1-B)*%
X184470000Y-51820000D02*
X184470000Y-56160000D01*
X173040000Y-51040000D02*
X183690000Y-51040000D01*
X183690000Y-51040000D02*
X184470000Y-51820000D01*
X170920000Y-53160000D02*
X173040000Y-51040000D01*
X170920000Y-72430000D02*
X170920000Y-53160000D01*
X166090000Y-77260000D02*
X170920000Y-72430000D01*
X166090000Y-78080000D02*
X166090000Y-77260000D01*
%TO.N,GND*%
X174950000Y-79840000D02*
X174950000Y-78570000D01*
X176340000Y-81230000D02*
X174950000Y-79840000D01*
X182480000Y-81230000D02*
X176340000Y-81230000D01*
X184540000Y-79170000D02*
X182480000Y-81230000D01*
X184540000Y-78670000D02*
X184540000Y-79170000D01*
%TO.N,Net-(Q4-B)*%
X189397157Y-66701371D02*
X187390000Y-64694214D01*
X189397157Y-72107157D02*
X189397157Y-66701371D01*
X195170000Y-77880000D02*
X189397157Y-72107157D01*
X195170000Y-78830000D02*
X195170000Y-77880000D01*
X187390000Y-64694214D02*
X187390000Y-62630000D01*
X187390000Y-62630000D02*
X181110000Y-56350000D01*
%TO.N,Net-(D3-K)*%
X184560000Y-62300000D02*
X178610000Y-56350000D01*
X184560000Y-70540000D02*
X184560000Y-62300000D01*
%TO.N,Net-(D2-K)*%
X174690000Y-58430000D02*
X172640000Y-56380000D01*
X174690000Y-70680000D02*
X174690000Y-58430000D01*
%TO.N,Net-(D4-K)*%
X193910000Y-64790000D02*
X186970000Y-57850000D01*
X186970000Y-57850000D02*
X186970000Y-56160000D01*
X193910000Y-70570000D02*
X193910000Y-64790000D01*
%TO.N,GND*%
X193010000Y-79720000D02*
X193900000Y-78830000D01*
X184540000Y-78670000D02*
X184540000Y-78895000D01*
X184540000Y-78895000D02*
X185365000Y-79720000D01*
X185365000Y-79720000D02*
X193010000Y-79720000D01*
%TO.N,Net-(Q4-B)*%
X195170000Y-82590000D02*
X195170000Y-78830000D01*
X197480000Y-84900000D02*
X195170000Y-82590000D01*
%TO.N,Net-(D1-K)*%
X164770000Y-58390000D02*
X166680000Y-56480000D01*
X164770000Y-70470000D02*
X164770000Y-58390000D01*
%TD*%
D10*
%TO.C,R5*%
X167540000Y-64550000D03*
X162460000Y-64550000D03*
%TD*%
D11*
%TO.C,D4*%
X193910000Y-70570000D03*
D12*
X196450000Y-70570000D03*
%TD*%
D11*
%TO.C,D3*%
X184560000Y-70540000D03*
D12*
X187100000Y-70540000D03*
%TD*%
D11*
%TO.C,D2*%
X174690000Y-70680000D03*
D12*
X177230000Y-70680000D03*
%TD*%
D11*
%TO.C,D1*%
X164770000Y-70470000D03*
D12*
X167310000Y-70470000D03*
%TD*%
D13*
%TO.C,C4*%
X186970000Y-56160000D03*
X184470000Y-56160000D03*
%TD*%
%TO.C,C3*%
X178610000Y-56350000D03*
X181110000Y-56350000D03*
%TD*%
%TO.C,C1*%
X166680000Y-56480000D03*
X169180000Y-56480000D03*
%TD*%
%TO.C,C2*%
X172640000Y-56380000D03*
X175140000Y-56380000D03*
%TD*%
D10*
%TO.C,R8*%
X196910000Y-64140000D03*
X191830000Y-64140000D03*
%TD*%
%TO.C,R7*%
X183310000Y-64280000D03*
X188390000Y-64280000D03*
%TD*%
%TO.C,R6*%
X178640000Y-64510000D03*
X173560000Y-64510000D03*
%TD*%
%TO.C,R4*%
X197480000Y-84900000D03*
X192400000Y-84900000D03*
%TD*%
%TO.C,R3*%
X188230000Y-84940000D03*
X183150000Y-84940000D03*
%TD*%
%TO.C,R2*%
X178710000Y-84890000D03*
X173630000Y-84890000D03*
%TD*%
%TO.C,R1*%
X168270000Y-84920000D03*
X163190000Y-84920000D03*
%TD*%
D14*
%TO.C,Q1*%
X164820000Y-78080000D03*
X166090000Y-78080000D03*
D15*
X167360000Y-78080000D03*
%TD*%
D14*
%TO.C,Q2*%
X177490000Y-78570000D03*
X176220000Y-78570000D03*
D15*
X174950000Y-78570000D03*
%TD*%
D14*
%TO.C,Q3*%
X187080000Y-78670000D03*
X185810000Y-78670000D03*
D15*
X184540000Y-78670000D03*
%TD*%
D14*
%TO.C,Q4*%
X196440000Y-78830000D03*
X195170000Y-78830000D03*
D15*
X193900000Y-78830000D03*
%TD*%
D17*
%TO.C,SW1*%
X196990000Y-57340000D03*
X190490000Y-57340000D03*
X196990000Y-52840000D03*
X190490000Y-52840000D03*
%TD*%
D26*
%TO.C,G\u002A\u002A\u002A*%
G36*
X199836832Y-75628411D02*
G01*
X200424155Y-76108523D01*
X200831912Y-76449049D01*
X202519489Y-77505828D01*
X204396840Y-78124708D01*
X206558750Y-78340167D01*
X208807708Y-78364472D01*
X208730927Y-79797444D01*
X208717692Y-80385520D01*
X208839239Y-81317766D01*
X209199741Y-82106233D01*
X209332513Y-82300734D01*
X210193463Y-83093694D01*
X211263619Y-83546379D01*
X212363130Y-83575269D01*
X212843768Y-83505626D01*
X213117788Y-83631863D01*
X213173333Y-84092145D01*
X213137808Y-84486115D01*
X212914887Y-84886710D01*
X212390201Y-85193144D01*
X211453542Y-85495338D01*
X211204055Y-85565269D01*
X210497953Y-85750048D01*
X210045787Y-85798952D01*
X209642835Y-85711158D01*
X209084373Y-85485849D01*
X208599662Y-85242121D01*
X207820988Y-84526241D01*
X207377947Y-83492485D01*
X207231350Y-82068577D01*
X207220209Y-80468207D01*
X204838959Y-80431248D01*
X204782925Y-80430351D01*
X203535830Y-80383884D01*
X202625654Y-80269018D01*
X201867986Y-80049322D01*
X201078413Y-79688366D01*
X200545056Y-79394793D01*
X199569306Y-78775412D01*
X198792350Y-78186289D01*
X198239974Y-77740693D01*
X197905114Y-77607333D01*
X197732553Y-77788922D01*
X197444501Y-78056034D01*
X196856846Y-78187708D01*
X196647802Y-78183251D01*
X196330744Y-78099290D01*
X196451667Y-77870207D01*
X196674713Y-77403359D01*
X196769167Y-76712083D01*
X196776616Y-76330833D01*
X196881869Y-76020418D01*
X197227056Y-75940249D01*
X197955095Y-76005130D01*
X198591493Y-76051670D01*
X199080601Y-75972781D01*
X199307052Y-75706135D01*
X199333974Y-75642420D01*
X199510132Y-75486261D01*
X199836832Y-75628411D01*
G37*
G36*
X192535833Y-83611666D02*
G01*
X192403542Y-83743958D01*
X192271250Y-83611666D01*
X192403542Y-83479374D01*
X192535833Y-83611666D01*
G37*
G36*
X180678746Y-76218936D02*
G01*
X181233505Y-76346447D01*
X182023539Y-76441038D01*
X182318949Y-76474469D01*
X182929119Y-76777831D01*
X183099138Y-77357678D01*
X182812977Y-78178723D01*
X182691195Y-78398758D01*
X182499216Y-78868021D01*
X182617780Y-79207987D01*
X183091733Y-79656386D01*
X183185246Y-79735243D01*
X183788815Y-80139644D01*
X184261525Y-80304374D01*
X184575626Y-80371266D01*
X185113791Y-80688843D01*
X185309253Y-80822747D01*
X186112111Y-81053832D01*
X187200692Y-81099914D01*
X188422594Y-80962534D01*
X189625417Y-80643234D01*
X189976914Y-80513127D01*
X190677657Y-80189511D01*
X191032090Y-79857576D01*
X191164405Y-79418486D01*
X191218801Y-79098963D01*
X191435623Y-78829702D01*
X191958155Y-78884087D01*
X192512400Y-79084012D01*
X193151413Y-79473217D01*
X193486309Y-79715773D01*
X193847054Y-79728309D01*
X194408184Y-79449987D01*
X194893629Y-79191993D01*
X195132216Y-79170942D01*
X195181667Y-79427616D01*
X195169198Y-79586876D01*
X195058059Y-79838615D01*
X194761199Y-80146682D01*
X194194645Y-80591460D01*
X193274425Y-81253330D01*
X192293224Y-81948613D01*
X191391111Y-81391077D01*
X190788253Y-81040708D01*
X190287046Y-80876911D01*
X189976071Y-81053539D01*
X189721921Y-81586187D01*
X189559999Y-81918585D01*
X189097587Y-82343453D01*
X188274852Y-82641457D01*
X187965467Y-82726633D01*
X187221064Y-82969695D01*
X186756472Y-83176446D01*
X186492003Y-83266605D01*
X185778420Y-83308745D01*
X184907545Y-83238451D01*
X184097382Y-83078043D01*
X183565938Y-82849835D01*
X183077935Y-82568907D01*
X182384241Y-82289128D01*
X181718749Y-81912517D01*
X181176455Y-81314643D01*
X180969712Y-80901524D01*
X180947140Y-80504490D01*
X181254760Y-80079882D01*
X181473341Y-79742873D01*
X181511852Y-79128825D01*
X181148820Y-78647160D01*
X180459675Y-78452291D01*
X180375846Y-78451259D01*
X179949429Y-78349521D01*
X179939818Y-78033776D01*
X180047893Y-77545227D01*
X180100417Y-76825322D01*
X180118882Y-76420741D01*
X180271827Y-76158109D01*
X180678746Y-76218936D01*
G37*
G36*
X210947823Y-79826484D02*
G01*
X211851253Y-80097734D01*
X212522890Y-80537188D01*
X212864518Y-81070900D01*
X212777922Y-81624923D01*
X212815577Y-81802418D01*
X213223864Y-81906808D01*
X213516532Y-81938063D01*
X213447700Y-82048446D01*
X212908750Y-82277258D01*
X211781251Y-82543930D01*
X210843042Y-82383184D01*
X210182405Y-81781067D01*
X209822549Y-80749072D01*
X209807970Y-80658037D01*
X209753202Y-80066162D01*
X209898289Y-79822593D01*
X210321108Y-79775208D01*
X210947823Y-79826484D01*
G37*
G36*
X205147639Y-82509235D02*
G01*
X205189032Y-82588817D01*
X204971250Y-82685624D01*
X204831181Y-82666530D01*
X204794861Y-82509235D01*
X204833641Y-82477570D01*
X205147639Y-82509235D01*
G37*
G36*
X170310834Y-82288749D02*
G01*
X170178542Y-82421041D01*
X170046250Y-82288749D01*
X170178542Y-82156458D01*
X170310834Y-82288749D01*
G37*
G36*
X171810139Y-81450902D02*
G01*
X171851532Y-81530484D01*
X171633750Y-81627291D01*
X171493681Y-81608196D01*
X171457361Y-81450902D01*
X171496141Y-81419236D01*
X171810139Y-81450902D01*
G37*
G36*
X173083949Y-75682699D02*
G01*
X173174484Y-76031068D01*
X173533876Y-76821190D01*
X174132600Y-77437781D01*
X175065954Y-77960180D01*
X176429234Y-78467722D01*
X177554989Y-78873681D01*
X178301708Y-79266758D01*
X178592284Y-79659195D01*
X178460328Y-80099230D01*
X177939454Y-80635103D01*
X177617795Y-80879684D01*
X177216328Y-81042491D01*
X176694634Y-81045637D01*
X175925594Y-80886140D01*
X174782088Y-80561017D01*
X173773949Y-80217160D01*
X172622822Y-79623942D01*
X171964859Y-78938545D01*
X171779622Y-78135784D01*
X172046673Y-77190478D01*
X172098438Y-77079826D01*
X172450396Y-76256001D01*
X172701925Y-75557469D01*
X172903547Y-74880416D01*
X173083949Y-75682699D01*
G37*
G36*
X198885833Y-80436666D02*
G01*
X198753542Y-80568958D01*
X198621250Y-80436666D01*
X198753542Y-80304374D01*
X198885833Y-80436666D01*
G37*
G36*
X163120819Y-64855229D02*
G01*
X163407749Y-65756017D01*
X163834081Y-67327715D01*
X164520621Y-68859918D01*
X165537892Y-70369157D01*
X165647877Y-70512068D01*
X166156032Y-71211569D01*
X166394690Y-71704791D01*
X166418425Y-72168568D01*
X166281807Y-72779735D01*
X166235408Y-72972628D01*
X166123194Y-73835712D01*
X166164074Y-74527875D01*
X166236605Y-74729263D01*
X166657379Y-75411542D01*
X167319816Y-76214812D01*
X168112634Y-77029796D01*
X168924552Y-77747221D01*
X169644287Y-78257811D01*
X170160558Y-78452291D01*
X170545579Y-78477268D01*
X170703505Y-78666735D01*
X170556955Y-79179895D01*
X170267453Y-79746507D01*
X169851475Y-80238228D01*
X169673615Y-80361526D01*
X168999776Y-80597318D01*
X168266543Y-80453197D01*
X167405069Y-79903304D01*
X166346506Y-78921781D01*
X165542917Y-78065487D01*
X164915260Y-77249697D01*
X164601306Y-76542235D01*
X164549690Y-75818648D01*
X164709045Y-74954485D01*
X164836085Y-74368116D01*
X164823956Y-73863713D01*
X164591106Y-73347670D01*
X164083569Y-72618440D01*
X162847874Y-70656435D01*
X162097366Y-68776793D01*
X161846752Y-66991668D01*
X161846824Y-66931945D01*
X161931860Y-65756605D01*
X162146281Y-64926036D01*
X162445582Y-64475466D01*
X162785262Y-64440121D01*
X163120819Y-64855229D01*
G37*
G36*
X187923859Y-78795318D02*
G01*
X188206187Y-79185409D01*
X188415818Y-79688487D01*
X188428140Y-80050553D01*
X188127782Y-80282696D01*
X187649831Y-80199291D01*
X187226159Y-79741559D01*
X187216540Y-79723472D01*
X187062143Y-79243466D01*
X187282996Y-78951861D01*
X187461461Y-78847808D01*
X187775835Y-78720926D01*
X187923859Y-78795318D01*
G37*
G36*
X186867795Y-77207536D02*
G01*
X187097968Y-77585415D01*
X187136443Y-77880975D01*
X186837695Y-78359734D01*
X186606466Y-78617343D01*
X186575790Y-79224243D01*
X186645533Y-79590648D01*
X186584172Y-80037423D01*
X186528113Y-80116360D01*
X186257198Y-80304374D01*
X186131331Y-80272442D01*
X185707642Y-79958163D01*
X185306034Y-79484340D01*
X185127500Y-79070500D01*
X185125131Y-79001472D01*
X185003729Y-78846832D01*
X184604937Y-79038736D01*
X184549506Y-79071516D01*
X183998920Y-79183627D01*
X183669943Y-78904327D01*
X183701018Y-78340547D01*
X183965886Y-78027041D01*
X184560607Y-78005958D01*
X185062440Y-78007769D01*
X185881805Y-77632778D01*
X185956445Y-77574558D01*
X186527885Y-77202336D01*
X186867795Y-77207536D01*
G37*
G36*
X191827656Y-76543557D02*
G01*
X192090541Y-76665086D01*
X192158386Y-77041864D01*
X192092523Y-77234311D01*
X192006667Y-77645848D01*
X192004118Y-77661834D01*
X191731640Y-77788256D01*
X191146771Y-77822646D01*
X190616408Y-77839432D01*
X190316714Y-78060339D01*
X190203966Y-78650728D01*
X190193432Y-78743171D01*
X189977498Y-79352109D01*
X189594100Y-79489949D01*
X189108337Y-79128312D01*
X189038502Y-79035214D01*
X188855510Y-78361055D01*
X189112150Y-77685267D01*
X189757708Y-77161447D01*
X190530270Y-76797907D01*
X191097660Y-76572058D01*
X191479504Y-76502384D01*
X191827656Y-76543557D01*
G37*
G36*
X194462417Y-74225480D02*
G01*
X194975566Y-74550753D01*
X195443802Y-75303764D01*
X195809906Y-76397276D01*
X195846248Y-76572517D01*
X195825087Y-77003790D01*
X195534316Y-77401906D01*
X194881299Y-77918630D01*
X194177958Y-78403760D01*
X193656724Y-78663133D01*
X193349446Y-78622393D01*
X193154619Y-78304204D01*
X193146732Y-78280744D01*
X193240698Y-77786502D01*
X193692090Y-77165247D01*
X194216617Y-76458678D01*
X194377457Y-75832485D01*
X194123333Y-75409582D01*
X194007081Y-75314296D01*
X193842723Y-74870086D01*
X193985191Y-74422817D01*
X194381122Y-74218957D01*
X194462417Y-74225480D01*
G37*
G36*
X177122027Y-72972696D02*
G01*
X177916272Y-73491353D01*
X178160035Y-73849266D01*
X178507866Y-74611446D01*
X178828072Y-75539835D01*
X179073190Y-76472278D01*
X179195760Y-77246619D01*
X179148318Y-77700702D01*
X178826770Y-77851746D01*
X178138625Y-77873721D01*
X177256121Y-77764424D01*
X176339894Y-77544640D01*
X175550579Y-77235156D01*
X174645570Y-76643740D01*
X174167916Y-75966333D01*
X174023415Y-75066827D01*
X174107979Y-74469766D01*
X174569224Y-73668136D01*
X175314589Y-73115284D01*
X176210161Y-72865405D01*
X177122027Y-72972696D01*
G37*
G36*
X167258346Y-72897717D02*
G01*
X167557871Y-73060641D01*
X168163714Y-73437562D01*
X168956349Y-73954374D01*
X169032855Y-74005021D01*
X169834107Y-74514633D01*
X170457689Y-74875635D01*
X170774226Y-75012707D01*
X170904140Y-75043448D01*
X171295790Y-75309747D01*
X171400195Y-75498799D01*
X171375953Y-76076831D01*
X171088087Y-76752114D01*
X170602925Y-77331135D01*
X170580868Y-77348817D01*
X170320217Y-77445008D01*
X169974548Y-77313729D01*
X169453876Y-76899988D01*
X168668219Y-76148793D01*
X168025265Y-75489685D01*
X167480091Y-74827754D01*
X167209137Y-74292315D01*
X167135834Y-73764219D01*
X167136211Y-73693359D01*
X167172341Y-73127941D01*
X167249415Y-72896041D01*
X167258346Y-72897717D01*
G37*
G36*
X216582053Y-61645509D02*
G01*
X216220034Y-62834154D01*
X216218208Y-62837681D01*
X215404800Y-63868150D01*
X214275666Y-64530563D01*
X212926637Y-64789248D01*
X211453542Y-64608530D01*
X210659792Y-64390812D01*
X211504718Y-65269989D01*
X211659011Y-65436198D01*
X212648138Y-66890290D01*
X213228834Y-68518148D01*
X213419030Y-70231064D01*
X213236660Y-71940328D01*
X212699657Y-73557232D01*
X211825954Y-74993067D01*
X210633484Y-76159124D01*
X209140178Y-76966694D01*
X208313654Y-77178475D01*
X206950647Y-77313340D01*
X205483156Y-77283743D01*
X204115786Y-77096662D01*
X203053142Y-76759076D01*
X202651684Y-76536486D01*
X201774090Y-75944385D01*
X200936475Y-75271961D01*
X199811875Y-74268477D01*
X200285031Y-73383821D01*
X200306640Y-73343687D01*
X200775659Y-72549879D01*
X201242601Y-71863565D01*
X201727013Y-71227965D01*
X202826776Y-72111758D01*
X203618180Y-72663154D01*
X204416896Y-72967222D01*
X205470441Y-73107228D01*
X206178421Y-73145448D01*
X206840213Y-73096407D01*
X207343780Y-72876661D01*
X207900625Y-72427010D01*
X207969700Y-72364913D01*
X208417906Y-71907417D01*
X208677557Y-71440779D01*
X208813691Y-70791671D01*
X208891349Y-69786765D01*
X208897693Y-68537107D01*
X208747958Y-67570497D01*
X208447878Y-67038588D01*
X208009922Y-66981076D01*
X207745147Y-66989521D01*
X207617084Y-66606745D01*
X207600713Y-66433606D01*
X207279566Y-65870085D01*
X206675670Y-65496319D01*
X205957699Y-65353750D01*
X205294329Y-65483817D01*
X204854234Y-65927961D01*
X204517106Y-66335542D01*
X203702076Y-66605427D01*
X203236867Y-66635116D01*
X202805756Y-66493257D01*
X202537441Y-66032881D01*
X202358060Y-65417423D01*
X202232323Y-64576279D01*
X202229715Y-64518256D01*
X202280502Y-64025209D01*
X202575037Y-63730082D01*
X203251459Y-63484949D01*
X204309792Y-63172756D01*
X203251459Y-62972489D01*
X202435625Y-62783868D01*
X201428449Y-62370165D01*
X200550958Y-61715141D01*
X200198489Y-61348794D01*
X200121508Y-60982282D01*
X200359315Y-60425287D01*
X200773222Y-59857036D01*
X201276343Y-59697982D01*
X201796250Y-60063749D01*
X202208299Y-60376589D01*
X202927037Y-60495356D01*
X203653822Y-60293098D01*
X204216291Y-59828637D01*
X204442084Y-59160795D01*
X204436150Y-58984795D01*
X204195105Y-58258611D01*
X203586615Y-57897327D01*
X202590427Y-57887011D01*
X202220233Y-57933092D01*
X201719935Y-57914955D01*
X201449510Y-57637043D01*
X201221931Y-56974671D01*
X201100268Y-56499145D01*
X201097880Y-55952084D01*
X201400418Y-55630735D01*
X202081672Y-55478203D01*
X203215434Y-55437592D01*
X204317474Y-55522690D01*
X205708480Y-55968930D01*
X206745595Y-56769727D01*
X207393304Y-57893829D01*
X207616094Y-59309985D01*
X207612882Y-59457034D01*
X207309434Y-60736074D01*
X206559048Y-61812848D01*
X205428805Y-62586863D01*
X204309792Y-63094836D01*
X205677215Y-63100647D01*
X206165032Y-63112146D01*
X206965558Y-63172867D01*
X207463152Y-63267057D01*
X207771250Y-63273336D01*
X207881667Y-62870182D01*
X207926349Y-62535825D01*
X208103781Y-62312708D01*
X208418866Y-62077928D01*
X208671970Y-61461832D01*
X211686819Y-61461832D01*
X211715033Y-62064196D01*
X211998118Y-62414301D01*
X212223675Y-62490747D01*
X212646908Y-62577291D01*
X212693697Y-62573807D01*
X213134575Y-62313406D01*
X213530627Y-61798671D01*
X213702500Y-61254374D01*
X213694919Y-61159410D01*
X213477058Y-60623815D01*
X213085278Y-60141133D01*
X212691414Y-59935509D01*
X212627927Y-59941313D01*
X212193614Y-60220377D01*
X211863129Y-60787221D01*
X211686819Y-61461832D01*
X208671970Y-61461832D01*
X208687819Y-61423253D01*
X208871813Y-60459731D01*
X208940000Y-59298557D01*
X208938678Y-59057655D01*
X208883853Y-58135235D01*
X208720644Y-57552106D01*
X208410833Y-57153333D01*
X208068905Y-56727982D01*
X207867708Y-56000532D01*
X208045522Y-55330655D01*
X208589090Y-54886898D01*
X209252409Y-54746638D01*
X209988911Y-54784183D01*
X210561572Y-54987807D01*
X210792083Y-55322272D01*
X210568729Y-55602762D01*
X209866042Y-55698124D01*
X209560630Y-55720112D01*
X209041517Y-55926072D01*
X208905298Y-56265441D01*
X209222621Y-56635314D01*
X209333591Y-56752183D01*
X209363217Y-57180095D01*
X209318865Y-57356085D01*
X209411325Y-57563055D01*
X210760667Y-57657946D01*
X212404524Y-57797683D01*
X213640684Y-57954891D01*
X214541906Y-58153965D01*
X215180946Y-58419300D01*
X215630564Y-58775290D01*
X215963515Y-59246330D01*
X216252559Y-59856814D01*
X216445139Y-60391225D01*
X216539358Y-61254374D01*
X216582053Y-61645509D01*
G37*
G36*
X184456233Y-76319753D02*
G01*
X184576508Y-76422935D01*
X185003682Y-76428053D01*
X185177849Y-76394624D01*
X185397092Y-76566985D01*
X185253574Y-76915106D01*
X185022173Y-76984245D01*
X184518024Y-76936403D01*
X184026016Y-76783687D01*
X183804583Y-76584978D01*
X183860359Y-76387701D01*
X184156075Y-76189980D01*
X184456233Y-76319753D01*
G37*
G36*
X187122796Y-75677326D02*
G01*
X187550804Y-76007877D01*
X187609199Y-76455489D01*
X187278727Y-76689293D01*
X186632739Y-76758812D01*
X186405362Y-76741117D01*
X185921639Y-76579420D01*
X185788958Y-76195271D01*
X185890220Y-75846800D01*
X186398834Y-75587710D01*
X186484724Y-75578225D01*
X187122796Y-75677326D01*
G37*
G36*
X191954352Y-75143186D02*
G01*
X192006667Y-75523472D01*
X191908166Y-75855314D01*
X191411354Y-76148899D01*
X191013522Y-76225082D01*
X190617604Y-76299593D01*
X190588221Y-76303778D01*
X190382869Y-76167825D01*
X190429120Y-75811902D01*
X190661487Y-75420840D01*
X191014479Y-75179471D01*
X191107291Y-75154831D01*
X191702176Y-75036815D01*
X191954352Y-75143186D01*
G37*
G36*
X185778951Y-72594749D02*
G01*
X185612816Y-73878823D01*
X185493778Y-74659089D01*
X185341780Y-75496096D01*
X183160332Y-75502176D01*
X182651518Y-75499396D01*
X181544130Y-75439531D01*
X180761745Y-75283975D01*
X180157152Y-75008529D01*
X179164283Y-74166732D01*
X178573261Y-73145863D01*
X178387242Y-72102291D01*
X181158750Y-72102291D01*
X181233296Y-72456726D01*
X181574524Y-73009434D01*
X181874832Y-73265767D01*
X182439024Y-73451956D01*
X182846936Y-73144327D01*
X183056724Y-72361180D01*
X183065243Y-71626709D01*
X182834138Y-70989002D01*
X182315357Y-70779374D01*
X181803536Y-70994752D01*
X181351886Y-71508773D01*
X181158750Y-72102291D01*
X178387242Y-72102291D01*
X178378706Y-72054405D01*
X178549293Y-70985182D01*
X179053700Y-70031015D01*
X179860603Y-69284727D01*
X180938678Y-68839142D01*
X182256603Y-68787082D01*
X183486747Y-68938453D01*
X183671644Y-67345372D01*
X183725444Y-66905105D01*
X183879253Y-66163407D01*
X184167841Y-65813286D01*
X184718152Y-65763889D01*
X185657128Y-65924362D01*
X186517484Y-66096434D01*
X186354967Y-67578008D01*
X186241325Y-68607186D01*
X185989387Y-70829869D01*
X185894376Y-71626709D01*
X185778951Y-72594749D01*
G37*
G36*
X199053459Y-65076059D02*
G01*
X199300404Y-65141194D01*
X200154191Y-65418602D01*
X200767467Y-65697736D01*
X201002500Y-65919028D01*
X200948177Y-66174828D01*
X200776421Y-66867698D01*
X200508507Y-67909445D01*
X200166277Y-69215238D01*
X199771569Y-70700247D01*
X198540638Y-75301631D01*
X197721048Y-75123460D01*
X197017115Y-74946675D01*
X196339496Y-74733644D01*
X195777534Y-74521998D01*
X196659665Y-71261623D01*
X197022680Y-69920993D01*
X197475611Y-68264069D01*
X197827120Y-67022611D01*
X198099477Y-66139074D01*
X198314954Y-65555910D01*
X198495820Y-65215574D01*
X198664346Y-65060517D01*
X198842803Y-65033194D01*
X199053459Y-65076059D01*
G37*
G36*
X194398644Y-67422674D02*
G01*
X194622327Y-67660412D01*
X194749200Y-68154021D01*
X194806476Y-68483286D01*
X194911504Y-69713340D01*
X194889454Y-70990330D01*
X194750068Y-72125265D01*
X194503086Y-72929152D01*
X193979432Y-73586351D01*
X193265410Y-74076066D01*
X193128475Y-74124553D01*
X192349721Y-74280351D01*
X191257220Y-74390249D01*
X190019510Y-74435581D01*
X187597289Y-74448765D01*
X187176030Y-71227170D01*
X187165456Y-71146087D01*
X187012359Y-69916732D01*
X186898891Y-68901430D01*
X186835776Y-68203586D01*
X186833738Y-67926608D01*
X186924565Y-67894671D01*
X187388890Y-67794031D01*
X188079576Y-67666882D01*
X188810179Y-67545132D01*
X189394256Y-67460686D01*
X189645361Y-67445451D01*
X189654725Y-67490988D01*
X189720880Y-67920870D01*
X189833899Y-68704796D01*
X189976090Y-69721041D01*
X190054014Y-70268424D01*
X190209393Y-71170136D01*
X190369435Y-71697675D01*
X190574335Y-71956532D01*
X190864286Y-72052201D01*
X191320025Y-71999222D01*
X191730616Y-71543547D01*
X191946724Y-70631635D01*
X191976698Y-69242401D01*
X191911394Y-67472083D01*
X193246356Y-67393344D01*
X193925139Y-67363358D01*
X194398644Y-67422674D01*
G37*
G36*
X174106796Y-68430386D02*
G01*
X174457063Y-68992035D01*
X174984545Y-69938943D01*
X175203634Y-70641810D01*
X175109952Y-71230546D01*
X174699122Y-71835062D01*
X173966764Y-72585270D01*
X173922370Y-72628009D01*
X173149364Y-73298645D01*
X172463546Y-73771297D01*
X172001401Y-73951113D01*
X171842586Y-73933265D01*
X171196344Y-73703545D01*
X170468297Y-73292916D01*
X170196287Y-73113696D01*
X169612845Y-72768531D01*
X169282689Y-72631457D01*
X169202359Y-72593718D01*
X168805389Y-72269328D01*
X168184549Y-71684437D01*
X167434417Y-70926300D01*
X166561773Y-69938619D01*
X165403369Y-68242509D01*
X167698622Y-68242509D01*
X168076878Y-69133003D01*
X168080344Y-69137931D01*
X168687809Y-69626683D01*
X169412262Y-69711255D01*
X170108947Y-69446414D01*
X170633111Y-68886930D01*
X170840000Y-68087569D01*
X170729283Y-67533258D01*
X170255205Y-66924188D01*
X169553062Y-66596163D01*
X168782429Y-66610844D01*
X168102882Y-67029895D01*
X167835417Y-67414412D01*
X167698622Y-68242509D01*
X165403369Y-68242509D01*
X165373557Y-68198859D01*
X164632604Y-66485780D01*
X164369401Y-64859722D01*
X164391549Y-64198920D01*
X164570063Y-63532396D01*
X164996358Y-63198757D01*
X165753171Y-63148516D01*
X166923237Y-63332187D01*
X168829265Y-63921939D01*
X170850042Y-65032696D01*
X172637139Y-66555326D01*
X173838099Y-68087569D01*
X174106796Y-68430386D01*
G37*
G36*
X175345347Y-65803258D02*
G01*
X175910025Y-66146737D01*
X176632534Y-66730123D01*
X177396704Y-67441847D01*
X178086367Y-68170345D01*
X178585356Y-68804048D01*
X178777500Y-69231390D01*
X178552923Y-69679885D01*
X177917604Y-70095574D01*
X177848554Y-70125554D01*
X177004125Y-70432193D01*
X176538820Y-70446620D01*
X176396250Y-70171655D01*
X176384363Y-70105271D01*
X176174242Y-69635099D01*
X175755957Y-68893190D01*
X175200346Y-68007720D01*
X174758152Y-67309477D01*
X174358230Y-66536437D01*
X174292552Y-66063615D01*
X174559916Y-65825441D01*
X175159121Y-65756342D01*
X175345347Y-65803258D01*
G37*
G36*
X206878432Y-68307657D02*
G01*
X206884502Y-68398124D01*
X206907436Y-68739923D01*
X206816904Y-69059582D01*
X206770831Y-69222260D01*
X206308403Y-69556837D01*
X206088230Y-69662646D01*
X205645644Y-69762735D01*
X205338957Y-69546394D01*
X205159542Y-69375333D01*
X204743644Y-69191874D01*
X204557617Y-69170422D01*
X204506168Y-69059582D01*
X205500417Y-69059582D01*
X205632709Y-69191874D01*
X205765000Y-69059582D01*
X205632709Y-68927291D01*
X205500417Y-69059582D01*
X204506168Y-69059582D01*
X204464954Y-68970793D01*
X204687353Y-68460680D01*
X204784131Y-68260515D01*
X205556946Y-68260515D01*
X205588611Y-68574513D01*
X205668193Y-68615906D01*
X205765000Y-68398124D01*
X205745906Y-68258055D01*
X205588611Y-68221735D01*
X205556946Y-68260515D01*
X204784131Y-68260515D01*
X204831246Y-68163068D01*
X204894503Y-68001249D01*
X206029584Y-68001249D01*
X206161875Y-68133541D01*
X206294167Y-68001249D01*
X206161875Y-67868958D01*
X206029584Y-68001249D01*
X204894503Y-68001249D01*
X205098461Y-67479497D01*
X205111065Y-67440593D01*
X205281955Y-67137607D01*
X205487568Y-67319001D01*
X205708602Y-67501488D01*
X206241801Y-67541405D01*
X206515746Y-67506198D01*
X206755030Y-67703157D01*
X206815882Y-68001249D01*
X206878432Y-68307657D01*
G37*
G36*
X222169167Y-68265832D02*
G01*
X222036875Y-68398124D01*
X221904583Y-68265832D01*
X222036875Y-68133541D01*
X222169167Y-68265832D01*
G37*
G36*
X223790177Y-63636468D02*
G01*
X224463221Y-63690153D01*
X224802766Y-63885704D01*
X224972686Y-64304062D01*
X225001968Y-64409105D01*
X225385505Y-65033910D01*
X226107858Y-65381417D01*
X227245002Y-65491320D01*
X227311389Y-65491617D01*
X228424198Y-65541997D01*
X229093441Y-65700984D01*
X229396143Y-66003994D01*
X229409331Y-66486442D01*
X229296966Y-66981072D01*
X229151203Y-67387397D01*
X229025322Y-67457031D01*
X228470756Y-67546481D01*
X227619246Y-67592132D01*
X226618367Y-67594931D01*
X225615695Y-67555821D01*
X224758805Y-67475748D01*
X224195273Y-67355657D01*
X223761347Y-67071763D01*
X223375491Y-66352937D01*
X223252424Y-65952311D01*
X222937304Y-65657866D01*
X222288549Y-65574383D01*
X222026190Y-65576155D01*
X221360126Y-65757215D01*
X220824132Y-66312519D01*
X220598017Y-66610847D01*
X220297016Y-66870876D01*
X219871826Y-67009670D01*
X219187472Y-67065142D01*
X218108980Y-67075208D01*
X217069982Y-67049746D01*
X216005310Y-66922855D01*
X215377233Y-66683195D01*
X215145850Y-66530433D01*
X214792120Y-66432428D01*
X214489507Y-66686457D01*
X214187141Y-66925564D01*
X213799687Y-66781490D01*
X213474753Y-66354621D01*
X213577031Y-65924588D01*
X214165521Y-65628082D01*
X214235520Y-65608861D01*
X214967519Y-65291721D01*
X215713218Y-64822543D01*
X215767750Y-64781187D01*
X216301394Y-64422389D01*
X216633422Y-64376756D01*
X216947808Y-64613075D01*
X217076507Y-64717454D01*
X217547932Y-64897301D01*
X218330853Y-64985968D01*
X219532450Y-64999478D01*
X220889955Y-64931779D01*
X221787386Y-64756333D01*
X222282101Y-64452623D01*
X222433750Y-64000102D01*
X222458047Y-63895074D01*
X222808627Y-63697636D01*
X223619334Y-63635624D01*
X223790177Y-63636468D01*
G37*
G36*
X197211951Y-55861158D02*
G01*
X197893646Y-55986711D01*
X198176901Y-56040512D01*
X198863093Y-56161865D01*
X199245246Y-56215768D01*
X199355768Y-56361056D01*
X199323700Y-56822603D01*
X199309567Y-56883851D01*
X199201111Y-57455370D01*
X199037833Y-58408234D01*
X198839352Y-59625392D01*
X198625284Y-60989791D01*
X198575839Y-61309241D01*
X198365167Y-62631426D01*
X198175129Y-63766007D01*
X198024908Y-64601067D01*
X197933688Y-65024687D01*
X197813512Y-65298672D01*
X197563341Y-65448387D01*
X197063373Y-65447575D01*
X196179233Y-65318758D01*
X195737773Y-65238155D01*
X195361320Y-65068797D01*
X195236908Y-64697548D01*
X195253192Y-63961176D01*
X195260708Y-63709258D01*
X195196003Y-62984028D01*
X195004048Y-62656896D01*
X194828500Y-62684978D01*
X194834053Y-63082107D01*
X194860444Y-63261159D01*
X194736536Y-63568796D01*
X194300195Y-63883572D01*
X193457395Y-64287841D01*
X192733366Y-64603201D01*
X192119212Y-64860003D01*
X191848248Y-64958541D01*
X191761946Y-64912698D01*
X191511988Y-64531633D01*
X191256624Y-63936188D01*
X191077797Y-63335612D01*
X191057449Y-62939155D01*
X191134185Y-62821339D01*
X191595157Y-62447059D01*
X192288242Y-62069981D01*
X193371633Y-61584933D01*
X192553416Y-61002311D01*
X191735199Y-60419689D01*
X192300734Y-59625467D01*
X192367137Y-59534546D01*
X192839119Y-58989940D01*
X193221413Y-58694965D01*
X193491633Y-58732545D01*
X194073049Y-59033372D01*
X194775987Y-59541526D01*
X195312992Y-59971093D01*
X195791358Y-60327426D01*
X195975779Y-60426351D01*
X195982941Y-60367614D01*
X196056825Y-59908329D01*
X196193687Y-59103686D01*
X196372292Y-58079374D01*
X196448680Y-57645179D01*
X196612392Y-56710445D01*
X196726109Y-56055019D01*
X196768805Y-55799797D01*
X196812356Y-55799787D01*
X197211951Y-55861158D01*
G37*
G36*
X230635833Y-52292166D02*
G01*
X230634970Y-52445848D01*
X230613705Y-53334504D01*
X230567906Y-54542464D01*
X230502874Y-55975509D01*
X230423914Y-57539423D01*
X230336329Y-59139986D01*
X230245421Y-60682982D01*
X230156493Y-62074191D01*
X230074850Y-63219396D01*
X230005793Y-64024379D01*
X229954626Y-64394922D01*
X229917937Y-64467932D01*
X229633715Y-64624700D01*
X229020092Y-64675447D01*
X227980448Y-64631763D01*
X227933116Y-64628508D01*
X226997521Y-64543098D01*
X226291062Y-64440817D01*
X225963437Y-64343089D01*
X225938078Y-64240203D01*
X225922150Y-63692427D01*
X225945520Y-62762673D01*
X226005148Y-61546008D01*
X226097992Y-60137498D01*
X226123184Y-59794521D01*
X226247329Y-58084004D01*
X226371573Y-56343331D01*
X226482729Y-54758450D01*
X226567611Y-53515312D01*
X226739584Y-50935624D01*
X228687709Y-50935624D01*
X230635833Y-50935624D01*
X230635833Y-52292166D01*
G37*
G36*
X188434792Y-61787880D02*
G01*
X189106566Y-61831652D01*
X189740558Y-61978423D01*
X190052038Y-62187334D01*
X189937950Y-62415365D01*
X189931300Y-62419740D01*
X189774497Y-62785944D01*
X189769631Y-63412332D01*
X189770225Y-63417042D01*
X189802247Y-64066088D01*
X189733714Y-64468198D01*
X189445703Y-64574374D01*
X188881598Y-64514250D01*
X188316800Y-64403837D01*
X187734035Y-64362521D01*
X187710002Y-64363780D01*
X187457780Y-64268837D01*
X187345624Y-63882599D01*
X187337160Y-63088279D01*
X187376458Y-61784116D01*
X188434792Y-61787880D01*
G37*
G36*
X185406468Y-61586924D02*
G01*
X185723883Y-61849687D01*
X185895796Y-62043034D01*
X186252847Y-61835756D01*
X186322887Y-61779435D01*
X186634932Y-61647885D01*
X186806286Y-61968048D01*
X186875374Y-62907435D01*
X186601837Y-63966353D01*
X186539196Y-64094166D01*
X186242620Y-64410141D01*
X186013275Y-64240199D01*
X185921250Y-63620009D01*
X185920797Y-63571282D01*
X185843246Y-63080570D01*
X185672928Y-62964116D01*
X185493076Y-62975871D01*
X185183182Y-62686186D01*
X185139686Y-62609921D01*
X184944590Y-62397864D01*
X184786752Y-62658725D01*
X184759440Y-62881816D01*
X185011915Y-63208549D01*
X185185264Y-63300175D01*
X185407792Y-63665518D01*
X185261062Y-64010724D01*
X184796857Y-64117047D01*
X184788491Y-64115847D01*
X184413494Y-63992097D01*
X184271713Y-63664337D01*
X184293364Y-62974166D01*
X184313688Y-62763150D01*
X184408293Y-62087977D01*
X184507330Y-61717395D01*
X184517047Y-61702721D01*
X184899996Y-61526605D01*
X185406468Y-61586924D01*
G37*
G36*
X221583783Y-52986145D02*
G01*
X221659858Y-55433541D01*
X223646929Y-55433541D01*
X225634001Y-55433541D01*
X225555230Y-57087187D01*
X225476459Y-58740832D01*
X223624375Y-58873124D01*
X221772292Y-59005416D01*
X221701221Y-61254374D01*
X221688237Y-61619155D01*
X221635520Y-62644791D01*
X221571289Y-63436106D01*
X221506610Y-63845730D01*
X221499323Y-63863309D01*
X221223477Y-64043305D01*
X220567869Y-64122557D01*
X219461014Y-64110314D01*
X217538959Y-64032499D01*
X217548484Y-57285624D01*
X217558010Y-50538749D01*
X219532859Y-50538749D01*
X221507708Y-50538749D01*
X221583783Y-52986145D01*
G37*
G36*
X182752128Y-61263885D02*
G01*
X182869410Y-61388583D01*
X183232561Y-61413153D01*
X183469147Y-61419359D01*
X183792024Y-61760073D01*
X183912292Y-62104770D01*
X183762545Y-62466895D01*
X183233148Y-62489221D01*
X183088480Y-62459955D01*
X183076979Y-62510412D01*
X183159858Y-62592662D01*
X183275417Y-63011829D01*
X183230993Y-63200172D01*
X182944688Y-63211945D01*
X182796920Y-63143503D01*
X182834445Y-63262476D01*
X182904540Y-63330058D01*
X183297465Y-63536405D01*
X183434837Y-63556278D01*
X183747733Y-63652158D01*
X183707685Y-63842940D01*
X183463113Y-63942156D01*
X182863354Y-63968022D01*
X182123001Y-63909043D01*
X181446848Y-63783213D01*
X181039688Y-63608524D01*
X181003611Y-63448191D01*
X181386032Y-63371041D01*
X181761539Y-63307721D01*
X181786245Y-63051504D01*
X181576004Y-62546717D01*
X181599093Y-61813672D01*
X182011244Y-61279090D01*
X182041783Y-61260194D01*
X182490207Y-61077419D01*
X182752128Y-61263885D01*
G37*
G36*
X177036069Y-61679557D02*
G01*
X177081745Y-61698108D01*
X177424480Y-61979502D01*
X177360663Y-62220652D01*
X176926676Y-62236374D01*
X176699236Y-62191527D01*
X176495351Y-62308170D01*
X176548239Y-62800828D01*
X176697710Y-63503333D01*
X176150105Y-62878708D01*
X176076777Y-62792554D01*
X175681137Y-62112147D01*
X175739687Y-61658500D01*
X176206604Y-61493631D01*
X177036069Y-61679557D01*
G37*
G36*
X180391267Y-62204187D02*
G01*
X180717601Y-62553322D01*
X180894167Y-62882881D01*
X180892089Y-62915981D01*
X180676498Y-63098841D01*
X180256353Y-63022915D01*
X179845452Y-62721173D01*
X179716739Y-62535671D01*
X179647612Y-62116262D01*
X179917387Y-61963209D01*
X180391267Y-62204187D01*
G37*
G36*
X179199388Y-61852651D02*
G01*
X179241401Y-62036394D01*
X179040077Y-62447417D01*
X178750599Y-62694828D01*
X178374076Y-62746696D01*
X178208058Y-62438385D01*
X178212375Y-62390493D01*
X178448210Y-62049213D01*
X178862083Y-61819788D01*
X179199388Y-61852651D01*
G37*
G36*
X173817730Y-60515736D02*
G01*
X174216203Y-60791353D01*
X174223023Y-60800172D01*
X174366611Y-61287706D01*
X174350861Y-61981978D01*
X174285464Y-62312368D01*
X174072441Y-62770036D01*
X173824644Y-62731331D01*
X173594942Y-62182244D01*
X173427979Y-61772364D01*
X173217865Y-61653341D01*
X173120806Y-61828747D01*
X173144656Y-62312971D01*
X173171036Y-62632227D01*
X173003140Y-62841874D01*
X172735037Y-62766236D01*
X172529855Y-62436267D01*
X172326748Y-61717395D01*
X172267303Y-61423151D01*
X172321364Y-61072832D01*
X172687043Y-60989791D01*
X172999430Y-60939500D01*
X173221250Y-60725208D01*
X173221255Y-60723397D01*
X173409670Y-60488004D01*
X173817730Y-60515736D01*
G37*
G36*
X169896175Y-60552583D02*
G01*
X170289396Y-61212354D01*
X170451499Y-61536457D01*
X170729887Y-62133177D01*
X170840000Y-62434459D01*
X170794440Y-62500371D01*
X170438845Y-62577291D01*
X170224604Y-62504981D01*
X169830967Y-62086455D01*
X169508364Y-61467347D01*
X169349076Y-60847434D01*
X169445379Y-60426495D01*
X169602313Y-60347472D01*
X169896175Y-60552583D01*
G37*
G36*
X166994968Y-61102465D02*
G01*
X167540415Y-61438192D01*
X167949631Y-61799786D01*
X168045942Y-62073905D01*
X167799010Y-62284544D01*
X167372473Y-62185414D01*
X166710288Y-61693702D01*
X166595580Y-61589950D01*
X166252852Y-61168674D01*
X166244153Y-60918023D01*
X166489967Y-60905946D01*
X166994968Y-61102465D01*
G37*
G36*
X171586070Y-60662135D02*
G01*
X171525471Y-61154914D01*
X171337191Y-61439148D01*
X171042993Y-61298617D01*
X170872633Y-61040267D01*
X171047257Y-60676701D01*
X171366830Y-60491684D01*
X171586070Y-60662135D01*
G37*
G36*
X186601219Y-57633943D02*
G01*
X187014814Y-57660725D01*
X187090593Y-57636289D01*
X187373791Y-57810475D01*
X187399999Y-57949198D01*
X187127490Y-58079374D01*
X186930580Y-58109772D01*
X186715000Y-58328343D01*
X186833083Y-58644687D01*
X187260155Y-58732861D01*
X187892091Y-58460787D01*
X187904448Y-58452794D01*
X188647090Y-58151413D01*
X189498208Y-58026458D01*
X190114178Y-57938975D01*
X190852264Y-57637503D01*
X191447761Y-57208687D01*
X191778993Y-56744806D01*
X191724289Y-56338142D01*
X191537303Y-56165602D01*
X191154467Y-56037312D01*
X191066308Y-56047368D01*
X190799445Y-55882000D01*
X190803741Y-55539260D01*
X191096884Y-55258399D01*
X191222054Y-55227607D01*
X191715616Y-55388221D01*
X192110010Y-55885758D01*
X192271250Y-56570515D01*
X192227508Y-56788481D01*
X191931918Y-57408464D01*
X191449436Y-58114808D01*
X191424486Y-58146391D01*
X190933519Y-58853015D01*
X190749618Y-59421478D01*
X190799967Y-60071112D01*
X190877693Y-60641809D01*
X190773749Y-60927915D01*
X190406386Y-60989791D01*
X190057248Y-60908303D01*
X189702080Y-60460624D01*
X189497528Y-60095118D01*
X189083975Y-59937355D01*
X188699375Y-60196041D01*
X188473660Y-60392969D01*
X188043993Y-60473570D01*
X187681795Y-60351524D01*
X187607681Y-60055279D01*
X187595046Y-59739971D01*
X187132523Y-59410141D01*
X186692707Y-59193817D01*
X186328212Y-58889444D01*
X186281880Y-58840168D01*
X185832157Y-58675148D01*
X185131089Y-58608541D01*
X184853463Y-58600642D01*
X184118937Y-58418493D01*
X183559204Y-57911401D01*
X183550922Y-57900842D01*
X183085586Y-57068358D01*
X183091644Y-56951857D01*
X184118951Y-56951857D01*
X184223870Y-57195300D01*
X184646776Y-57496429D01*
X184955485Y-57445885D01*
X184943608Y-57036447D01*
X184804615Y-56742107D01*
X184479356Y-56509696D01*
X184188131Y-56573184D01*
X184118951Y-56951857D01*
X183091644Y-56951857D01*
X183121268Y-56382140D01*
X183659283Y-55814610D01*
X183762802Y-55749479D01*
X184533641Y-55483779D01*
X185170137Y-55719691D01*
X185710451Y-56469396D01*
X186112791Y-57147250D01*
X186412491Y-57445885D01*
X186601219Y-57633943D01*
G37*
G36*
X177461159Y-50528109D02*
G01*
X177228362Y-50928118D01*
X177089659Y-51318181D01*
X177124448Y-51709885D01*
X177373690Y-52176903D01*
X177878348Y-52792907D01*
X178679385Y-53631570D01*
X179817763Y-54766566D01*
X179932847Y-54880881D01*
X180824165Y-55792389D01*
X181549993Y-56579653D01*
X182038307Y-57161871D01*
X182217084Y-57458245D01*
X182220795Y-57517426D01*
X182481201Y-58082162D01*
X183038747Y-58706580D01*
X183733881Y-59239699D01*
X184407048Y-59530540D01*
X184568959Y-59564148D01*
X185541297Y-59859329D01*
X186204908Y-60228066D01*
X186450417Y-60612448D01*
X186323639Y-60763312D01*
X185737115Y-60830426D01*
X184700640Y-60731459D01*
X183244338Y-60467771D01*
X183140102Y-60447906D01*
X182391967Y-60399990D01*
X181853180Y-60510948D01*
X181503479Y-60644523D01*
X181078453Y-60488453D01*
X180796135Y-59841470D01*
X180780217Y-59794643D01*
X180480692Y-59329165D01*
X179885956Y-58606371D01*
X179073545Y-57715932D01*
X178120991Y-56747520D01*
X177210167Y-55831336D01*
X176309062Y-54826155D01*
X175770363Y-54042397D01*
X175564187Y-53417908D01*
X175660654Y-52890535D01*
X176029879Y-52398126D01*
X176210351Y-52205468D01*
X176314495Y-51894080D01*
X176029879Y-51498498D01*
X175765374Y-51143382D01*
X175602500Y-50735252D01*
X175603858Y-50696653D01*
X175869520Y-50177021D01*
X176471593Y-49774426D01*
X177230478Y-49612708D01*
X178026909Y-49612708D01*
X177461159Y-50528109D01*
G37*
G36*
X168167315Y-60203720D02*
G01*
X168450507Y-60422136D01*
X168289554Y-60806209D01*
X168179402Y-60873246D01*
X167840064Y-60790507D01*
X167665000Y-60445009D01*
X167709653Y-60330624D01*
X168061875Y-60196041D01*
X168167315Y-60203720D01*
G37*
G36*
X214663388Y-56579526D02*
G01*
X214593188Y-56811862D01*
X214290259Y-57190571D01*
X213674477Y-57285624D01*
X213395923Y-57273282D01*
X212888922Y-57068840D01*
X212563177Y-56491874D01*
X212548147Y-56452718D01*
X212436118Y-56227291D01*
X213437917Y-56227291D01*
X213445605Y-56290533D01*
X213702500Y-56491874D01*
X213765742Y-56484186D01*
X213967083Y-56227291D01*
X213959395Y-56164049D01*
X213702500Y-55962707D01*
X213639258Y-55970396D01*
X213437917Y-56227291D01*
X212436118Y-56227291D01*
X212282640Y-55918460D01*
X212056994Y-55698124D01*
X211962381Y-55653767D01*
X211850417Y-55301249D01*
X211902198Y-55109322D01*
X212262907Y-54904374D01*
X212451638Y-54865204D01*
X212507885Y-54633335D01*
X212440345Y-54220835D01*
X212513293Y-53575002D01*
X212809355Y-52952727D01*
X213283557Y-52816224D01*
X213875021Y-53187014D01*
X214155968Y-53398695D01*
X214489857Y-53453117D01*
X214518991Y-53438760D01*
X214759950Y-53550458D01*
X214902914Y-53897335D01*
X214830798Y-54217049D01*
X214680107Y-54298325D01*
X214187570Y-54375208D01*
X214138683Y-54376140D01*
X213755626Y-54533118D01*
X213802034Y-54904781D01*
X214271554Y-55412636D01*
X214681156Y-55924839D01*
X214672948Y-56227291D01*
X214663388Y-56579526D01*
G37*
G36*
X216251932Y-53342150D02*
G01*
X216555576Y-53687578D01*
X216618656Y-54457633D01*
X216445043Y-55677599D01*
X216443603Y-55684764D01*
X216213650Y-56297214D01*
X215849730Y-56434653D01*
X215641238Y-56350470D01*
X215448750Y-56025230D01*
X215456966Y-55899669D01*
X215485009Y-55305691D01*
X215514896Y-54507499D01*
X215516139Y-54471354D01*
X215580914Y-53741181D01*
X215748905Y-53400752D01*
X216083750Y-53316874D01*
X216251932Y-53342150D01*
G37*
G36*
X207125881Y-52142939D02*
G01*
X207537234Y-52824406D01*
X207608941Y-52996525D01*
X207771679Y-53772891D01*
X207520482Y-54397061D01*
X206806919Y-55014248D01*
X206583579Y-55160689D01*
X206019431Y-55459640D01*
X205698854Y-55521669D01*
X205501003Y-55218176D01*
X205654649Y-54720979D01*
X206177409Y-54190773D01*
X206538562Y-53895375D01*
X206715440Y-53510418D01*
X206564452Y-52934995D01*
X206422753Y-52429690D01*
X206466558Y-51957186D01*
X206734962Y-51857734D01*
X207125881Y-52142939D01*
G37*
G36*
X179440061Y-50597850D02*
G01*
X179880511Y-50914666D01*
X180518844Y-51500978D01*
X181440393Y-52411900D01*
X182038537Y-53012393D01*
X182740903Y-53742016D01*
X183149499Y-54233736D01*
X183316088Y-54570104D01*
X183292432Y-54833670D01*
X183130293Y-55106987D01*
X182774554Y-55501339D01*
X182406372Y-55698124D01*
X182170643Y-55579649D01*
X181633891Y-55151000D01*
X180917221Y-54500093D01*
X180116307Y-53722792D01*
X179326828Y-52914958D01*
X178644458Y-52172455D01*
X178164873Y-51591144D01*
X177983750Y-51266888D01*
X178165426Y-50951069D01*
X178660097Y-50616115D01*
X178811493Y-50552246D01*
X179112166Y-50495415D01*
X179440061Y-50597850D01*
G37*
G36*
X204078027Y-50105399D02*
G01*
X204285486Y-50750031D01*
X204477368Y-51346259D01*
X204765811Y-52579538D01*
X204924062Y-53683478D01*
X204932828Y-54536320D01*
X204772813Y-55016305D01*
X204763141Y-55026040D01*
X204659558Y-55104629D01*
X204582873Y-55029321D01*
X204511914Y-54707088D01*
X204425509Y-54044906D01*
X204302488Y-52949748D01*
X204130328Y-51391997D01*
X202367977Y-51541563D01*
X202208821Y-51557784D01*
X201204629Y-51722000D01*
X199883085Y-52006085D01*
X198397569Y-52374914D01*
X198180498Y-52435627D01*
X196901458Y-52793365D01*
X195318473Y-53248148D01*
X193961271Y-53586745D01*
X192764194Y-53808787D01*
X191553284Y-53946181D01*
X190154583Y-54030832D01*
X188873225Y-54077352D01*
X187831490Y-54075619D01*
X187039014Y-54004792D01*
X186349858Y-53851028D01*
X185618085Y-53600481D01*
X184475384Y-53092845D01*
X183601750Y-52606422D01*
X188109780Y-52606422D01*
X188255210Y-52855318D01*
X188664754Y-52942404D01*
X189181709Y-52574874D01*
X189368985Y-52320023D01*
X189610003Y-51614112D01*
X189578999Y-50905993D01*
X189301581Y-50360352D01*
X188803359Y-50141874D01*
X188522808Y-50187586D01*
X188302500Y-50406457D01*
X188347276Y-50528173D01*
X188699375Y-50671041D01*
X188779572Y-50678730D01*
X189062210Y-50937067D01*
X189064123Y-50957673D01*
X189106233Y-51411376D01*
X188931099Y-51895856D01*
X188556264Y-52184707D01*
X188249205Y-52327338D01*
X188109780Y-52606422D01*
X183601750Y-52606422D01*
X182976943Y-52258541D01*
X185788958Y-52258541D01*
X185848140Y-52324168D01*
X186306477Y-52491922D01*
X186901021Y-52505147D01*
X187332361Y-52346735D01*
X187383278Y-52243460D01*
X187471596Y-51720991D01*
X187504699Y-50957673D01*
X187486540Y-50386585D01*
X187404562Y-50038022D01*
X187244167Y-50141874D01*
X187077331Y-50572281D01*
X186983635Y-51266353D01*
X186972944Y-51511007D01*
X186801432Y-51900114D01*
X186302510Y-51993958D01*
X185882631Y-52062346D01*
X185788958Y-52258541D01*
X182976943Y-52258541D01*
X182813683Y-52167641D01*
X181085260Y-51028839D01*
X180103616Y-50276313D01*
X182003630Y-50276313D01*
X182052404Y-50573186D01*
X182353011Y-50838709D01*
X182756135Y-51103115D01*
X183148117Y-51178858D01*
X183412819Y-50847627D01*
X183427613Y-50797288D01*
X184066858Y-50797288D01*
X184188200Y-51467795D01*
X184487681Y-51833358D01*
X184794862Y-51945760D01*
X185073895Y-51938415D01*
X185358115Y-51638011D01*
X185547904Y-51320985D01*
X185748849Y-50760390D01*
X185865194Y-50192141D01*
X185865317Y-50027327D01*
X191107716Y-50027327D01*
X191308944Y-50434973D01*
X191524612Y-50915729D01*
X191545610Y-51614112D01*
X191553911Y-51890182D01*
X191521256Y-52408295D01*
X191648902Y-52762931D01*
X191883717Y-52669838D01*
X192123722Y-52092760D01*
X192298142Y-51397813D01*
X192988522Y-52026615D01*
X193427078Y-52405984D01*
X193563367Y-52435627D01*
X193464993Y-52126249D01*
X193392990Y-51924696D01*
X193184328Y-51205479D01*
X192973500Y-50340312D01*
X192948900Y-50232252D01*
X192719003Y-49478281D01*
X192499840Y-49120665D01*
X192335795Y-49197029D01*
X192318188Y-49346506D01*
X192271250Y-49744999D01*
X192264203Y-49784792D01*
X192188957Y-50209698D01*
X191932794Y-50406128D01*
X191609792Y-50141874D01*
X191555719Y-50070342D01*
X191182299Y-49877291D01*
X191107716Y-50027327D01*
X185865317Y-50027327D01*
X185865499Y-49784792D01*
X185718324Y-49706893D01*
X185469640Y-50055444D01*
X185259125Y-50674075D01*
X185249648Y-50716201D01*
X185023519Y-51328912D01*
X184798204Y-51457228D01*
X184653851Y-51137594D01*
X184670611Y-50406457D01*
X184708652Y-49889737D01*
X184640014Y-49428659D01*
X184465381Y-49365850D01*
X184229766Y-49766639D01*
X184148818Y-50023466D01*
X184066858Y-50797288D01*
X183427613Y-50797288D01*
X183647104Y-50050420D01*
X183664130Y-49346506D01*
X183538435Y-49057517D01*
X193382355Y-49057517D01*
X193405976Y-49303404D01*
X193811964Y-49283696D01*
X194102686Y-49250562D01*
X194410603Y-49460593D01*
X194676197Y-50081383D01*
X194830371Y-50624201D01*
X194819927Y-51047982D01*
X194555268Y-51339581D01*
X194310149Y-51548915D01*
X194123333Y-51824688D01*
X194142583Y-51877172D01*
X194448346Y-51982561D01*
X194915675Y-51962125D01*
X195269861Y-51817569D01*
X195398995Y-51515352D01*
X195435645Y-50835352D01*
X195332308Y-50039465D01*
X195103807Y-49348124D01*
X195049523Y-49281247D01*
X195987484Y-49281247D01*
X196065502Y-50099381D01*
X196233452Y-50786108D01*
X196259761Y-50835352D01*
X196452945Y-51196952D01*
X196747734Y-51448255D01*
X196940418Y-51370810D01*
X196901458Y-50935624D01*
X196857115Y-50565550D01*
X197132597Y-50406457D01*
X197313688Y-50430624D01*
X197695208Y-50671041D01*
X197749340Y-50743082D01*
X198112156Y-50935624D01*
X198140593Y-50750031D01*
X197973455Y-50248087D01*
X197673674Y-49574520D01*
X197311497Y-48874574D01*
X196957175Y-48293492D01*
X196680955Y-47976520D01*
X196574074Y-47923582D01*
X196186487Y-47925989D01*
X196113810Y-48015952D01*
X196002540Y-48523004D01*
X195987484Y-49281247D01*
X195049523Y-49281247D01*
X194801197Y-48975312D01*
X194253806Y-48706119D01*
X193716529Y-48722661D01*
X193382355Y-49057517D01*
X183538435Y-49057517D01*
X183419117Y-48783190D01*
X182990850Y-48554374D01*
X182933192Y-48576711D01*
X182651743Y-48910025D01*
X182314855Y-49515792D01*
X182201206Y-49757985D01*
X182003630Y-50276313D01*
X180103616Y-50276313D01*
X179452278Y-49776999D01*
X178142681Y-48686666D01*
X179364708Y-48554374D01*
X180586736Y-48422083D01*
X180090318Y-47405933D01*
X179975695Y-47169200D01*
X179761813Y-46669964D01*
X179786932Y-46507731D01*
X180045596Y-46581970D01*
X181622002Y-47223747D01*
X183273769Y-47795542D01*
X184748069Y-48159602D01*
X186197169Y-48351915D01*
X187773333Y-48408471D01*
X188734565Y-48401858D01*
X189808360Y-48353578D01*
X190641669Y-48234331D01*
X191405598Y-48016053D01*
X192271250Y-47670675D01*
X192438253Y-47600419D01*
X198226085Y-47600419D01*
X198231855Y-48190485D01*
X198469885Y-49189380D01*
X198629778Y-49686081D01*
X198971537Y-50416153D01*
X199295140Y-50671041D01*
X199557072Y-50538576D01*
X199532650Y-50045443D01*
X199499504Y-49708111D01*
X199702517Y-49294460D01*
X200107244Y-49240571D01*
X200539353Y-49620100D01*
X200615329Y-49727034D01*
X200997927Y-50050707D01*
X201366612Y-50159615D01*
X201531667Y-49984158D01*
X201493293Y-49786471D01*
X201340804Y-49195590D01*
X201111833Y-48382262D01*
X201055012Y-48195272D01*
X200727831Y-47405315D01*
X200415614Y-47071495D01*
X200157528Y-47212539D01*
X199992738Y-47847174D01*
X199939767Y-48120442D01*
X199675847Y-48505462D01*
X199303625Y-48416361D01*
X198915636Y-47852666D01*
X198902969Y-47825153D01*
X198600218Y-47380018D01*
X198317536Y-47429339D01*
X198226085Y-47600419D01*
X192438253Y-47600419D01*
X193191898Y-47283370D01*
X195300885Y-46481254D01*
X197093922Y-45950056D01*
X198659505Y-45671786D01*
X200086127Y-45628451D01*
X201462282Y-45802060D01*
X201602687Y-45837695D01*
X201997338Y-46049716D01*
X202382980Y-46474512D01*
X202804778Y-47184028D01*
X203307896Y-48250209D01*
X203937498Y-49744999D01*
X204030752Y-49984158D01*
X204078027Y-50105399D01*
G37*
G36*
X225434268Y-52113607D02*
G01*
X225590074Y-52595540D01*
X225599124Y-53276417D01*
X225442783Y-53970682D01*
X225253895Y-54208870D01*
X224715179Y-54323051D01*
X224527731Y-54283526D01*
X224252773Y-54035960D01*
X224239579Y-53452309D01*
X224339901Y-52921881D01*
X224699537Y-52237788D01*
X225244272Y-51993958D01*
X225434268Y-52113607D01*
G37*
G36*
X211321250Y-53978333D02*
G01*
X211188958Y-54110624D01*
X211056667Y-53978333D01*
X211188958Y-53846041D01*
X211321250Y-53978333D01*
G37*
G36*
X216417774Y-51510519D02*
G01*
X216612917Y-51861666D01*
X216475253Y-52126010D01*
X215919062Y-52258541D01*
X215643990Y-52250700D01*
X215394009Y-52149208D01*
X215554583Y-51861666D01*
X215784749Y-51651451D01*
X216248439Y-51464791D01*
X216417774Y-51510519D01*
G37*
G36*
X178034411Y-47520455D02*
G01*
X178183894Y-47585840D01*
X177851459Y-47760624D01*
X177370334Y-47959119D01*
X177218615Y-47965488D01*
X177322292Y-47760624D01*
X177455939Y-47635994D01*
X177933219Y-47514637D01*
X178034411Y-47520455D01*
G37*
G36*
X196841425Y-49005404D02*
G01*
X197033750Y-49363739D01*
X197026177Y-49422809D01*
X196769167Y-49612707D01*
X196642722Y-49562224D01*
X196504583Y-49200218D01*
X196542657Y-49011230D01*
X196769167Y-48951249D01*
X196841425Y-49005404D01*
G37*
G36*
X183010833Y-50258551D02*
G01*
X182978452Y-50455680D01*
X182746250Y-50671041D01*
X182683476Y-50663915D01*
X182481667Y-50422072D01*
X182491759Y-50347841D01*
X182746250Y-50009582D01*
X182882566Y-49984692D01*
X183010833Y-50258551D01*
G37*
G36*
X183074076Y-49091229D02*
G01*
X183275417Y-49348124D01*
X183267728Y-49411366D01*
X183010833Y-49612707D01*
X182947591Y-49605019D01*
X182746250Y-49348124D01*
X182753939Y-49284882D01*
X183010833Y-49083541D01*
X183074076Y-49091229D01*
G37*
%TD*%
D18*
%TO.P,R5,1*%
%TO.N,Net-(D1-A)*%
X167540000Y-64550000D03*
%TO.P,R5,2*%
%TO.N,VCC*%
X162460000Y-64550000D03*
%TD*%
D19*
%TO.P,D4,1,K_1*%
%TO.N,Net-(D4-K)*%
X193910000Y-70570000D03*
D20*
%TO.P,D4,2,A_2*%
%TO.N,Net-(D4-A)*%
X196450000Y-70570000D03*
%TD*%
D19*
%TO.P,D3,1,K_1*%
%TO.N,Net-(D3-K)*%
X184560000Y-70540000D03*
D20*
%TO.P,D3,2,A_2*%
%TO.N,Net-(D3-A)*%
X187100000Y-70540000D03*
%TD*%
D19*
%TO.P,D2,1,K_1*%
%TO.N,Net-(D2-K)*%
X174690000Y-70680000D03*
D20*
%TO.P,D2,2,A_2*%
%TO.N,Net-(D2-A)*%
X177230000Y-70680000D03*
%TD*%
D19*
%TO.P,D1,1,K_1*%
%TO.N,Net-(D1-K)*%
X164770000Y-70470000D03*
D20*
%TO.P,D1,2,A_2*%
%TO.N,Net-(D1-A)*%
X167310000Y-70470000D03*
%TD*%
D21*
%TO.P,C4,2*%
%TO.N,Net-(D4-K)*%
X186970000Y-56160000D03*
%TO.P,C4,1*%
%TO.N,Net-(Q1-B)*%
X184470000Y-56160000D03*
%TD*%
%TO.P,C3,2*%
%TO.N,Net-(D3-K)*%
X178610000Y-56350000D03*
%TO.P,C3,1*%
%TO.N,Net-(Q4-B)*%
X181110000Y-56350000D03*
%TD*%
%TO.P,C1,2*%
%TO.N,Net-(D1-K)*%
X166680000Y-56480000D03*
%TO.P,C1,1*%
%TO.N,Net-(Q2-B)*%
X169180000Y-56480000D03*
%TD*%
%TO.P,C2,2*%
%TO.N,Net-(D2-K)*%
X172640000Y-56380000D03*
%TO.P,C2,1*%
%TO.N,Net-(Q3-B)*%
X175140000Y-56380000D03*
%TD*%
D18*
%TO.P,R8,2*%
%TO.N,VCC*%
X196910000Y-64140000D03*
%TO.P,R8,1*%
%TO.N,Net-(D4-A)*%
X191830000Y-64140000D03*
%TD*%
%TO.P,R7,2*%
%TO.N,VCC*%
X183310000Y-64280000D03*
%TO.P,R7,1*%
%TO.N,Net-(D3-A)*%
X188390000Y-64280000D03*
%TD*%
%TO.P,R6,1*%
%TO.N,Net-(D2-A)*%
X178640000Y-64510000D03*
%TO.P,R6,2*%
%TO.N,VCC*%
X173560000Y-64510000D03*
%TD*%
%TO.P,R4,2*%
%TO.N,Net-(Q4-B)*%
X197480000Y-84900000D03*
%TO.P,R4,1*%
%TO.N,VCC*%
X192400000Y-84900000D03*
%TD*%
%TO.P,R3,2*%
%TO.N,Net-(Q3-B)*%
X188230000Y-84940000D03*
%TO.P,R3,1*%
%TO.N,VCC*%
X183150000Y-84940000D03*
%TD*%
%TO.P,R2,2*%
%TO.N,Net-(Q2-B)*%
X178710000Y-84890000D03*
%TO.P,R2,1*%
%TO.N,VCC*%
X173630000Y-84890000D03*
%TD*%
%TO.P,R1,2*%
%TO.N,Net-(Q1-B)*%
X168270000Y-84920000D03*
%TO.P,R1,1*%
%TO.N,VCC*%
X163190000Y-84920000D03*
%TD*%
D22*
%TO.P,Q1,3,C_3*%
%TO.N,Net-(D1-K)*%
X164820000Y-78080000D03*
%TO.P,Q1,2,B_2*%
%TO.N,Net-(Q1-B)*%
X166090000Y-78080000D03*
D23*
%TO.P,Q1,1,E_1*%
%TO.N,GND*%
X167360000Y-78080000D03*
%TD*%
D22*
%TO.P,Q2,3,C_3*%
%TO.N,Net-(D2-K)*%
X177490000Y-78570000D03*
%TO.P,Q2,2,B_2*%
%TO.N,Net-(Q2-B)*%
X176220000Y-78570000D03*
D23*
%TO.P,Q2,1,E_1*%
%TO.N,GND*%
X174950000Y-78570000D03*
%TD*%
D22*
%TO.P,Q3,3,C_3*%
%TO.N,Net-(D3-K)*%
X187080000Y-78670000D03*
%TO.P,Q3,2,B_2*%
%TO.N,Net-(Q3-B)*%
X185810000Y-78670000D03*
D23*
%TO.P,Q3,1,E_1*%
%TO.N,GND*%
X184540000Y-78670000D03*
%TD*%
D22*
%TO.P,Q4,3,C_3*%
%TO.N,Net-(D4-K)*%
X196440000Y-78830000D03*
%TO.P,Q4,2,B_2*%
%TO.N,Net-(Q4-B)*%
X195170000Y-78830000D03*
D23*
%TO.P,Q4,1,E_1*%
%TO.N,GND*%
X193900000Y-78830000D03*
%TD*%
D27*
%TO.P,BT2,2,-_2*%
%TO.N,GND*%
X202860000Y-79350000D03*
%TO.P,BT2,1,+_1*%
%TO.N,Net-(BT1--)*%
X232220000Y-79350000D03*
%TD*%
D24*
%TO.P,SW1,2,2_2*%
%TO.N,VCC*%
X196990000Y-57340000D03*
X190490000Y-57340000D03*
%TO.P,SW1,1,1_1*%
%TO.N,Net-(BT1-+)*%
X196990000Y-52840000D03*
X190490000Y-52840000D03*
%TD*%
D27*
%TO.P,BT1,1,+_1*%
%TO.N,Net-(BT1-+)*%
X202800000Y-54730000D03*
%TO.P,BT1,2,-_2*%
%TO.N,Net-(BT1--)*%
X232160000Y-54730000D03*
%TD*%
%TO.N,Net-(BT1--)*%
D25*
X232160000Y-54730000D02*
X232160000Y-79290000D01*
X232160000Y-79290000D02*
X232220000Y-79350000D01*
%TO.N,Net-(Q2-B)*%
X178710000Y-84890000D02*
X176220000Y-82400000D01*
X176220000Y-82400000D02*
X176220000Y-78570000D01*
%TO.N,GND*%
X193900000Y-79055000D02*
X193900000Y-78830000D01*
X194725000Y-79880000D02*
X193900000Y-79055000D01*
X202860000Y-79350000D02*
X202330000Y-79880000D01*
X202330000Y-79880000D02*
X194725000Y-79880000D01*
%TO.N,Net-(BT1-+)*%
X196990000Y-52840000D02*
X190490000Y-52840000D01*
X198880000Y-54730000D02*
X196990000Y-52840000D01*
X202800000Y-54730000D02*
X198880000Y-54730000D01*
%TO.N,Net-(D2-K)*%
X177490000Y-73480000D02*
X174690000Y-70680000D01*
X177490000Y-78570000D02*
X177490000Y-73480000D01*
%TO.N,VCC*%
X183160000Y-63100000D02*
X174970000Y-63100000D01*
X174970000Y-63100000D02*
X173560000Y-64510000D01*
X183310000Y-63250000D02*
X183160000Y-63100000D01*
X183310000Y-64280000D02*
X183310000Y-63250000D01*
%TO.N,Net-(D2-A)*%
X178640000Y-69230000D02*
X177190000Y-70680000D01*
X178640000Y-64510000D02*
X178640000Y-69230000D01*
%TO.N,Net-(D3-A)*%
X188390000Y-69210000D02*
X187060000Y-70540000D01*
X188390000Y-64280000D02*
X188390000Y-69210000D01*
%TO.N,VCC*%
X190250000Y-57340000D02*
X190490000Y-57340000D01*
X183310000Y-64280000D02*
X190250000Y-57340000D01*
X196990000Y-57340000D02*
X190490000Y-57340000D01*
X196910000Y-64140000D02*
X196910000Y-57420000D01*
X196910000Y-57420000D02*
X196990000Y-57340000D01*
%TO.N,Net-(D4-K)*%
X196440000Y-78830000D02*
X196440000Y-73100000D01*
X196440000Y-73100000D02*
X193910000Y-70570000D01*
%TO.N,Net-(D4-A)*%
X196410000Y-70570000D02*
X196410000Y-68720000D01*
X196410000Y-68720000D02*
X191830000Y-64140000D01*
%TO.N,Net-(D1-A)*%
X167540000Y-70200000D02*
X167270000Y-70470000D01*
X167540000Y-64550000D02*
X167540000Y-70200000D01*
%TO.N,VCC*%
X172600000Y-63550000D02*
X173560000Y-64510000D01*
X163460000Y-63550000D02*
X172600000Y-63550000D01*
X162460000Y-64550000D02*
X163460000Y-63550000D01*
%TO.N,Net-(D1-K)*%
X164820000Y-70520000D02*
X164770000Y-70470000D01*
X164820000Y-78080000D02*
X164820000Y-70520000D01*
%TO.N,GND*%
X174460000Y-78080000D02*
X174950000Y-78570000D01*
X167360000Y-78080000D02*
X174460000Y-78080000D01*
%TO.N,Net-(Q1-B)*%
X166090000Y-82740000D02*
X166090000Y-78080000D01*
X168270000Y-84920000D02*
X166090000Y-82740000D01*
%TO.N,VCC*%
X164190000Y-85920000D02*
X163190000Y-84920000D01*
X172600000Y-85920000D02*
X164190000Y-85920000D01*
X173630000Y-84890000D02*
X172600000Y-85920000D01*
X174630000Y-85890000D02*
X173630000Y-84890000D01*
X183150000Y-84940000D02*
X182200000Y-85890000D01*
X182200000Y-85890000D02*
X174630000Y-85890000D01*
%TO.N,Net-(Q3-B)*%
X185810000Y-82520000D02*
X185810000Y-78670000D01*
X188230000Y-84940000D02*
X185810000Y-82520000D01*
%TO.N,VCC*%
X184150000Y-85940000D02*
X183150000Y-84940000D01*
X191360000Y-85940000D02*
X184150000Y-85940000D01*
X192400000Y-84900000D02*
X191360000Y-85940000D01*
%TO.N,Net-(D3-K)*%
X187080000Y-73060000D02*
X184560000Y-70540000D01*
X187080000Y-78670000D02*
X187080000Y-73060000D01*
%TD*%
D28*
X164133333Y-66804819D02*
X163800000Y-66328628D01*
X163561905Y-66804819D02*
X163561905Y-65804819D01*
X163561905Y-65804819D02*
X163942857Y-65804819D01*
X163942857Y-65804819D02*
X164038095Y-65852438D01*
X164038095Y-65852438D02*
X164085714Y-65900057D01*
X164085714Y-65900057D02*
X164133333Y-65995295D01*
X164133333Y-65995295D02*
X164133333Y-66138152D01*
X164133333Y-66138152D02*
X164085714Y-66233390D01*
X164085714Y-66233390D02*
X164038095Y-66281009D01*
X164038095Y-66281009D02*
X163942857Y-66328628D01*
X163942857Y-66328628D02*
X163561905Y-66328628D01*
X165038095Y-65804819D02*
X164561905Y-65804819D01*
X164561905Y-65804819D02*
X164514286Y-66281009D01*
X164514286Y-66281009D02*
X164561905Y-66233390D01*
X164561905Y-66233390D02*
X164657143Y-66185771D01*
X164657143Y-66185771D02*
X164895238Y-66185771D01*
X164895238Y-66185771D02*
X164990476Y-66233390D01*
X164990476Y-66233390D02*
X165038095Y-66281009D01*
X165038095Y-66281009D02*
X165085714Y-66376247D01*
X165085714Y-66376247D02*
X165085714Y-66614342D01*
X165085714Y-66614342D02*
X165038095Y-66709580D01*
X165038095Y-66709580D02*
X164990476Y-66757200D01*
X164990476Y-66757200D02*
X164895238Y-66804819D01*
X164895238Y-66804819D02*
X164657143Y-66804819D01*
X164657143Y-66804819D02*
X164561905Y-66757200D01*
X164561905Y-66757200D02*
X164514286Y-66709580D01*
X194441905Y-68064819D02*
X194441905Y-67064819D01*
X194441905Y-67064819D02*
X194680000Y-67064819D01*
X194680000Y-67064819D02*
X194822857Y-67112438D01*
X194822857Y-67112438D02*
X194918095Y-67207676D01*
X194918095Y-67207676D02*
X194965714Y-67302914D01*
X194965714Y-67302914D02*
X195013333Y-67493390D01*
X195013333Y-67493390D02*
X195013333Y-67636247D01*
X195013333Y-67636247D02*
X194965714Y-67826723D01*
X194965714Y-67826723D02*
X194918095Y-67921961D01*
X194918095Y-67921961D02*
X194822857Y-68017200D01*
X194822857Y-68017200D02*
X194680000Y-68064819D01*
X194680000Y-68064819D02*
X194441905Y-68064819D01*
X195870476Y-67398152D02*
X195870476Y-68064819D01*
X195632381Y-67017200D02*
X195394286Y-67731485D01*
X195394286Y-67731485D02*
X196013333Y-67731485D01*
X185091905Y-68034819D02*
X185091905Y-67034819D01*
X185091905Y-67034819D02*
X185330000Y-67034819D01*
X185330000Y-67034819D02*
X185472857Y-67082438D01*
X185472857Y-67082438D02*
X185568095Y-67177676D01*
X185568095Y-67177676D02*
X185615714Y-67272914D01*
X185615714Y-67272914D02*
X185663333Y-67463390D01*
X185663333Y-67463390D02*
X185663333Y-67606247D01*
X185663333Y-67606247D02*
X185615714Y-67796723D01*
X185615714Y-67796723D02*
X185568095Y-67891961D01*
X185568095Y-67891961D02*
X185472857Y-67987200D01*
X185472857Y-67987200D02*
X185330000Y-68034819D01*
X185330000Y-68034819D02*
X185091905Y-68034819D01*
X185996667Y-67034819D02*
X186615714Y-67034819D01*
X186615714Y-67034819D02*
X186282381Y-67415771D01*
X186282381Y-67415771D02*
X186425238Y-67415771D01*
X186425238Y-67415771D02*
X186520476Y-67463390D01*
X186520476Y-67463390D02*
X186568095Y-67511009D01*
X186568095Y-67511009D02*
X186615714Y-67606247D01*
X186615714Y-67606247D02*
X186615714Y-67844342D01*
X186615714Y-67844342D02*
X186568095Y-67939580D01*
X186568095Y-67939580D02*
X186520476Y-67987200D01*
X186520476Y-67987200D02*
X186425238Y-68034819D01*
X186425238Y-68034819D02*
X186139524Y-68034819D01*
X186139524Y-68034819D02*
X186044286Y-67987200D01*
X186044286Y-67987200D02*
X185996667Y-67939580D01*
X175221905Y-68174819D02*
X175221905Y-67174819D01*
X175221905Y-67174819D02*
X175460000Y-67174819D01*
X175460000Y-67174819D02*
X175602857Y-67222438D01*
X175602857Y-67222438D02*
X175698095Y-67317676D01*
X175698095Y-67317676D02*
X175745714Y-67412914D01*
X175745714Y-67412914D02*
X175793333Y-67603390D01*
X175793333Y-67603390D02*
X175793333Y-67746247D01*
X175793333Y-67746247D02*
X175745714Y-67936723D01*
X175745714Y-67936723D02*
X175698095Y-68031961D01*
X175698095Y-68031961D02*
X175602857Y-68127200D01*
X175602857Y-68127200D02*
X175460000Y-68174819D01*
X175460000Y-68174819D02*
X175221905Y-68174819D01*
X176174286Y-67270057D02*
X176221905Y-67222438D01*
X176221905Y-67222438D02*
X176317143Y-67174819D01*
X176317143Y-67174819D02*
X176555238Y-67174819D01*
X176555238Y-67174819D02*
X176650476Y-67222438D01*
X176650476Y-67222438D02*
X176698095Y-67270057D01*
X176698095Y-67270057D02*
X176745714Y-67365295D01*
X176745714Y-67365295D02*
X176745714Y-67460533D01*
X176745714Y-67460533D02*
X176698095Y-67603390D01*
X176698095Y-67603390D02*
X176126667Y-68174819D01*
X176126667Y-68174819D02*
X176745714Y-68174819D01*
X165301905Y-67964819D02*
X165301905Y-66964819D01*
X165301905Y-66964819D02*
X165540000Y-66964819D01*
X165540000Y-66964819D02*
X165682857Y-67012438D01*
X165682857Y-67012438D02*
X165778095Y-67107676D01*
X165778095Y-67107676D02*
X165825714Y-67202914D01*
X165825714Y-67202914D02*
X165873333Y-67393390D01*
X165873333Y-67393390D02*
X165873333Y-67536247D01*
X165873333Y-67536247D02*
X165825714Y-67726723D01*
X165825714Y-67726723D02*
X165778095Y-67821961D01*
X165778095Y-67821961D02*
X165682857Y-67917200D01*
X165682857Y-67917200D02*
X165540000Y-67964819D01*
X165540000Y-67964819D02*
X165301905Y-67964819D01*
X166825714Y-67964819D02*
X166254286Y-67964819D01*
X166540000Y-67964819D02*
X166540000Y-66964819D01*
X166540000Y-66964819D02*
X166444762Y-67107676D01*
X166444762Y-67107676D02*
X166349524Y-67202914D01*
X166349524Y-67202914D02*
X166254286Y-67250533D01*
X185553333Y-54019580D02*
X185505714Y-54067200D01*
X185505714Y-54067200D02*
X185362857Y-54114819D01*
X185362857Y-54114819D02*
X185267619Y-54114819D01*
X185267619Y-54114819D02*
X185124762Y-54067200D01*
X185124762Y-54067200D02*
X185029524Y-53971961D01*
X185029524Y-53971961D02*
X184981905Y-53876723D01*
X184981905Y-53876723D02*
X184934286Y-53686247D01*
X184934286Y-53686247D02*
X184934286Y-53543390D01*
X184934286Y-53543390D02*
X184981905Y-53352914D01*
X184981905Y-53352914D02*
X185029524Y-53257676D01*
X185029524Y-53257676D02*
X185124762Y-53162438D01*
X185124762Y-53162438D02*
X185267619Y-53114819D01*
X185267619Y-53114819D02*
X185362857Y-53114819D01*
X185362857Y-53114819D02*
X185505714Y-53162438D01*
X185505714Y-53162438D02*
X185553333Y-53210057D01*
X186410476Y-53448152D02*
X186410476Y-54114819D01*
X186172381Y-53067200D02*
X185934286Y-53781485D01*
X185934286Y-53781485D02*
X186553333Y-53781485D01*
X179693333Y-59209580D02*
X179645714Y-59257200D01*
X179645714Y-59257200D02*
X179502857Y-59304819D01*
X179502857Y-59304819D02*
X179407619Y-59304819D01*
X179407619Y-59304819D02*
X179264762Y-59257200D01*
X179264762Y-59257200D02*
X179169524Y-59161961D01*
X179169524Y-59161961D02*
X179121905Y-59066723D01*
X179121905Y-59066723D02*
X179074286Y-58876247D01*
X179074286Y-58876247D02*
X179074286Y-58733390D01*
X179074286Y-58733390D02*
X179121905Y-58542914D01*
X179121905Y-58542914D02*
X179169524Y-58447676D01*
X179169524Y-58447676D02*
X179264762Y-58352438D01*
X179264762Y-58352438D02*
X179407619Y-58304819D01*
X179407619Y-58304819D02*
X179502857Y-58304819D01*
X179502857Y-58304819D02*
X179645714Y-58352438D01*
X179645714Y-58352438D02*
X179693333Y-58400057D01*
X180026667Y-58304819D02*
X180645714Y-58304819D01*
X180645714Y-58304819D02*
X180312381Y-58685771D01*
X180312381Y-58685771D02*
X180455238Y-58685771D01*
X180455238Y-58685771D02*
X180550476Y-58733390D01*
X180550476Y-58733390D02*
X180598095Y-58781009D01*
X180598095Y-58781009D02*
X180645714Y-58876247D01*
X180645714Y-58876247D02*
X180645714Y-59114342D01*
X180645714Y-59114342D02*
X180598095Y-59209580D01*
X180598095Y-59209580D02*
X180550476Y-59257200D01*
X180550476Y-59257200D02*
X180455238Y-59304819D01*
X180455238Y-59304819D02*
X180169524Y-59304819D01*
X180169524Y-59304819D02*
X180074286Y-59257200D01*
X180074286Y-59257200D02*
X180026667Y-59209580D01*
X167763333Y-59339580D02*
X167715714Y-59387200D01*
X167715714Y-59387200D02*
X167572857Y-59434819D01*
X167572857Y-59434819D02*
X167477619Y-59434819D01*
X167477619Y-59434819D02*
X167334762Y-59387200D01*
X167334762Y-59387200D02*
X167239524Y-59291961D01*
X167239524Y-59291961D02*
X167191905Y-59196723D01*
X167191905Y-59196723D02*
X167144286Y-59006247D01*
X167144286Y-59006247D02*
X167144286Y-58863390D01*
X167144286Y-58863390D02*
X167191905Y-58672914D01*
X167191905Y-58672914D02*
X167239524Y-58577676D01*
X167239524Y-58577676D02*
X167334762Y-58482438D01*
X167334762Y-58482438D02*
X167477619Y-58434819D01*
X167477619Y-58434819D02*
X167572857Y-58434819D01*
X167572857Y-58434819D02*
X167715714Y-58482438D01*
X167715714Y-58482438D02*
X167763333Y-58530057D01*
X168715714Y-59434819D02*
X168144286Y-59434819D01*
X168430000Y-59434819D02*
X168430000Y-58434819D01*
X168430000Y-58434819D02*
X168334762Y-58577676D01*
X168334762Y-58577676D02*
X168239524Y-58672914D01*
X168239524Y-58672914D02*
X168144286Y-58720533D01*
X173723333Y-59239580D02*
X173675714Y-59287200D01*
X173675714Y-59287200D02*
X173532857Y-59334819D01*
X173532857Y-59334819D02*
X173437619Y-59334819D01*
X173437619Y-59334819D02*
X173294762Y-59287200D01*
X173294762Y-59287200D02*
X173199524Y-59191961D01*
X173199524Y-59191961D02*
X173151905Y-59096723D01*
X173151905Y-59096723D02*
X173104286Y-58906247D01*
X173104286Y-58906247D02*
X173104286Y-58763390D01*
X173104286Y-58763390D02*
X173151905Y-58572914D01*
X173151905Y-58572914D02*
X173199524Y-58477676D01*
X173199524Y-58477676D02*
X173294762Y-58382438D01*
X173294762Y-58382438D02*
X173437619Y-58334819D01*
X173437619Y-58334819D02*
X173532857Y-58334819D01*
X173532857Y-58334819D02*
X173675714Y-58382438D01*
X173675714Y-58382438D02*
X173723333Y-58430057D01*
X174104286Y-58430057D02*
X174151905Y-58382438D01*
X174151905Y-58382438D02*
X174247143Y-58334819D01*
X174247143Y-58334819D02*
X174485238Y-58334819D01*
X174485238Y-58334819D02*
X174580476Y-58382438D01*
X174580476Y-58382438D02*
X174628095Y-58430057D01*
X174628095Y-58430057D02*
X174675714Y-58525295D01*
X174675714Y-58525295D02*
X174675714Y-58620533D01*
X174675714Y-58620533D02*
X174628095Y-58763390D01*
X174628095Y-58763390D02*
X174056667Y-59334819D01*
X174056667Y-59334819D02*
X174675714Y-59334819D01*
X194203333Y-62674819D02*
X193870000Y-62198628D01*
X193631905Y-62674819D02*
X193631905Y-61674819D01*
X193631905Y-61674819D02*
X194012857Y-61674819D01*
X194012857Y-61674819D02*
X194108095Y-61722438D01*
X194108095Y-61722438D02*
X194155714Y-61770057D01*
X194155714Y-61770057D02*
X194203333Y-61865295D01*
X194203333Y-61865295D02*
X194203333Y-62008152D01*
X194203333Y-62008152D02*
X194155714Y-62103390D01*
X194155714Y-62103390D02*
X194108095Y-62151009D01*
X194108095Y-62151009D02*
X194012857Y-62198628D01*
X194012857Y-62198628D02*
X193631905Y-62198628D01*
X194774762Y-62103390D02*
X194679524Y-62055771D01*
X194679524Y-62055771D02*
X194631905Y-62008152D01*
X194631905Y-62008152D02*
X194584286Y-61912914D01*
X194584286Y-61912914D02*
X194584286Y-61865295D01*
X194584286Y-61865295D02*
X194631905Y-61770057D01*
X194631905Y-61770057D02*
X194679524Y-61722438D01*
X194679524Y-61722438D02*
X194774762Y-61674819D01*
X194774762Y-61674819D02*
X194965238Y-61674819D01*
X194965238Y-61674819D02*
X195060476Y-61722438D01*
X195060476Y-61722438D02*
X195108095Y-61770057D01*
X195108095Y-61770057D02*
X195155714Y-61865295D01*
X195155714Y-61865295D02*
X195155714Y-61912914D01*
X195155714Y-61912914D02*
X195108095Y-62008152D01*
X195108095Y-62008152D02*
X195060476Y-62055771D01*
X195060476Y-62055771D02*
X194965238Y-62103390D01*
X194965238Y-62103390D02*
X194774762Y-62103390D01*
X194774762Y-62103390D02*
X194679524Y-62151009D01*
X194679524Y-62151009D02*
X194631905Y-62198628D01*
X194631905Y-62198628D02*
X194584286Y-62293866D01*
X194584286Y-62293866D02*
X194584286Y-62484342D01*
X194584286Y-62484342D02*
X194631905Y-62579580D01*
X194631905Y-62579580D02*
X194679524Y-62627200D01*
X194679524Y-62627200D02*
X194774762Y-62674819D01*
X194774762Y-62674819D02*
X194965238Y-62674819D01*
X194965238Y-62674819D02*
X195060476Y-62627200D01*
X195060476Y-62627200D02*
X195108095Y-62579580D01*
X195108095Y-62579580D02*
X195155714Y-62484342D01*
X195155714Y-62484342D02*
X195155714Y-62293866D01*
X195155714Y-62293866D02*
X195108095Y-62198628D01*
X195108095Y-62198628D02*
X195060476Y-62151009D01*
X195060476Y-62151009D02*
X194965238Y-62103390D01*
X185683333Y-66654819D02*
X185350000Y-66178628D01*
X185111905Y-66654819D02*
X185111905Y-65654819D01*
X185111905Y-65654819D02*
X185492857Y-65654819D01*
X185492857Y-65654819D02*
X185588095Y-65702438D01*
X185588095Y-65702438D02*
X185635714Y-65750057D01*
X185635714Y-65750057D02*
X185683333Y-65845295D01*
X185683333Y-65845295D02*
X185683333Y-65988152D01*
X185683333Y-65988152D02*
X185635714Y-66083390D01*
X185635714Y-66083390D02*
X185588095Y-66131009D01*
X185588095Y-66131009D02*
X185492857Y-66178628D01*
X185492857Y-66178628D02*
X185111905Y-66178628D01*
X186016667Y-65654819D02*
X186683333Y-65654819D01*
X186683333Y-65654819D02*
X186254762Y-66654819D01*
X175933333Y-66884819D02*
X175600000Y-66408628D01*
X175361905Y-66884819D02*
X175361905Y-65884819D01*
X175361905Y-65884819D02*
X175742857Y-65884819D01*
X175742857Y-65884819D02*
X175838095Y-65932438D01*
X175838095Y-65932438D02*
X175885714Y-65980057D01*
X175885714Y-65980057D02*
X175933333Y-66075295D01*
X175933333Y-66075295D02*
X175933333Y-66218152D01*
X175933333Y-66218152D02*
X175885714Y-66313390D01*
X175885714Y-66313390D02*
X175838095Y-66361009D01*
X175838095Y-66361009D02*
X175742857Y-66408628D01*
X175742857Y-66408628D02*
X175361905Y-66408628D01*
X176790476Y-65884819D02*
X176600000Y-65884819D01*
X176600000Y-65884819D02*
X176504762Y-65932438D01*
X176504762Y-65932438D02*
X176457143Y-65980057D01*
X176457143Y-65980057D02*
X176361905Y-66122914D01*
X176361905Y-66122914D02*
X176314286Y-66313390D01*
X176314286Y-66313390D02*
X176314286Y-66694342D01*
X176314286Y-66694342D02*
X176361905Y-66789580D01*
X176361905Y-66789580D02*
X176409524Y-66837200D01*
X176409524Y-66837200D02*
X176504762Y-66884819D01*
X176504762Y-66884819D02*
X176695238Y-66884819D01*
X176695238Y-66884819D02*
X176790476Y-66837200D01*
X176790476Y-66837200D02*
X176838095Y-66789580D01*
X176838095Y-66789580D02*
X176885714Y-66694342D01*
X176885714Y-66694342D02*
X176885714Y-66456247D01*
X176885714Y-66456247D02*
X176838095Y-66361009D01*
X176838095Y-66361009D02*
X176790476Y-66313390D01*
X176790476Y-66313390D02*
X176695238Y-66265771D01*
X176695238Y-66265771D02*
X176504762Y-66265771D01*
X176504762Y-66265771D02*
X176409524Y-66313390D01*
X176409524Y-66313390D02*
X176361905Y-66361009D01*
X176361905Y-66361009D02*
X176314286Y-66456247D01*
X194773333Y-83434819D02*
X194440000Y-82958628D01*
X194201905Y-83434819D02*
X194201905Y-82434819D01*
X194201905Y-82434819D02*
X194582857Y-82434819D01*
X194582857Y-82434819D02*
X194678095Y-82482438D01*
X194678095Y-82482438D02*
X194725714Y-82530057D01*
X194725714Y-82530057D02*
X194773333Y-82625295D01*
X194773333Y-82625295D02*
X194773333Y-82768152D01*
X194773333Y-82768152D02*
X194725714Y-82863390D01*
X194725714Y-82863390D02*
X194678095Y-82911009D01*
X194678095Y-82911009D02*
X194582857Y-82958628D01*
X194582857Y-82958628D02*
X194201905Y-82958628D01*
X195630476Y-82768152D02*
X195630476Y-83434819D01*
X195392381Y-82387200D02*
X195154286Y-83101485D01*
X195154286Y-83101485D02*
X195773333Y-83101485D01*
X185523333Y-83474819D02*
X185190000Y-82998628D01*
X184951905Y-83474819D02*
X184951905Y-82474819D01*
X184951905Y-82474819D02*
X185332857Y-82474819D01*
X185332857Y-82474819D02*
X185428095Y-82522438D01*
X185428095Y-82522438D02*
X185475714Y-82570057D01*
X185475714Y-82570057D02*
X185523333Y-82665295D01*
X185523333Y-82665295D02*
X185523333Y-82808152D01*
X185523333Y-82808152D02*
X185475714Y-82903390D01*
X185475714Y-82903390D02*
X185428095Y-82951009D01*
X185428095Y-82951009D02*
X185332857Y-82998628D01*
X185332857Y-82998628D02*
X184951905Y-82998628D01*
X185856667Y-82474819D02*
X186475714Y-82474819D01*
X186475714Y-82474819D02*
X186142381Y-82855771D01*
X186142381Y-82855771D02*
X186285238Y-82855771D01*
X186285238Y-82855771D02*
X186380476Y-82903390D01*
X186380476Y-82903390D02*
X186428095Y-82951009D01*
X186428095Y-82951009D02*
X186475714Y-83046247D01*
X186475714Y-83046247D02*
X186475714Y-83284342D01*
X186475714Y-83284342D02*
X186428095Y-83379580D01*
X186428095Y-83379580D02*
X186380476Y-83427200D01*
X186380476Y-83427200D02*
X186285238Y-83474819D01*
X186285238Y-83474819D02*
X185999524Y-83474819D01*
X185999524Y-83474819D02*
X185904286Y-83427200D01*
X185904286Y-83427200D02*
X185856667Y-83379580D01*
X176003333Y-83424819D02*
X175670000Y-82948628D01*
X175431905Y-83424819D02*
X175431905Y-82424819D01*
X175431905Y-82424819D02*
X175812857Y-82424819D01*
X175812857Y-82424819D02*
X175908095Y-82472438D01*
X175908095Y-82472438D02*
X175955714Y-82520057D01*
X175955714Y-82520057D02*
X176003333Y-82615295D01*
X176003333Y-82615295D02*
X176003333Y-82758152D01*
X176003333Y-82758152D02*
X175955714Y-82853390D01*
X175955714Y-82853390D02*
X175908095Y-82901009D01*
X175908095Y-82901009D02*
X175812857Y-82948628D01*
X175812857Y-82948628D02*
X175431905Y-82948628D01*
X176384286Y-82520057D02*
X176431905Y-82472438D01*
X176431905Y-82472438D02*
X176527143Y-82424819D01*
X176527143Y-82424819D02*
X176765238Y-82424819D01*
X176765238Y-82424819D02*
X176860476Y-82472438D01*
X176860476Y-82472438D02*
X176908095Y-82520057D01*
X176908095Y-82520057D02*
X176955714Y-82615295D01*
X176955714Y-82615295D02*
X176955714Y-82710533D01*
X176955714Y-82710533D02*
X176908095Y-82853390D01*
X176908095Y-82853390D02*
X176336667Y-83424819D01*
X176336667Y-83424819D02*
X176955714Y-83424819D01*
X165563333Y-83454819D02*
X165230000Y-82978628D01*
X164991905Y-83454819D02*
X164991905Y-82454819D01*
X164991905Y-82454819D02*
X165372857Y-82454819D01*
X165372857Y-82454819D02*
X165468095Y-82502438D01*
X165468095Y-82502438D02*
X165515714Y-82550057D01*
X165515714Y-82550057D02*
X165563333Y-82645295D01*
X165563333Y-82645295D02*
X165563333Y-82788152D01*
X165563333Y-82788152D02*
X165515714Y-82883390D01*
X165515714Y-82883390D02*
X165468095Y-82931009D01*
X165468095Y-82931009D02*
X165372857Y-82978628D01*
X165372857Y-82978628D02*
X164991905Y-82978628D01*
X166515714Y-83454819D02*
X165944286Y-83454819D01*
X166230000Y-83454819D02*
X166230000Y-82454819D01*
X166230000Y-82454819D02*
X166134762Y-82597676D01*
X166134762Y-82597676D02*
X166039524Y-82692914D01*
X166039524Y-82692914D02*
X165944286Y-82740533D01*
X165994761Y-82190057D02*
X165899523Y-82142438D01*
X165899523Y-82142438D02*
X165804285Y-82047200D01*
X165804285Y-82047200D02*
X165661428Y-81904342D01*
X165661428Y-81904342D02*
X165566190Y-81856723D01*
X165566190Y-81856723D02*
X165470952Y-81856723D01*
X165518571Y-82094819D02*
X165423333Y-82047200D01*
X165423333Y-82047200D02*
X165328095Y-81951961D01*
X165328095Y-81951961D02*
X165280476Y-81761485D01*
X165280476Y-81761485D02*
X165280476Y-81428152D01*
X165280476Y-81428152D02*
X165328095Y-81237676D01*
X165328095Y-81237676D02*
X165423333Y-81142438D01*
X165423333Y-81142438D02*
X165518571Y-81094819D01*
X165518571Y-81094819D02*
X165709047Y-81094819D01*
X165709047Y-81094819D02*
X165804285Y-81142438D01*
X165804285Y-81142438D02*
X165899523Y-81237676D01*
X165899523Y-81237676D02*
X165947142Y-81428152D01*
X165947142Y-81428152D02*
X165947142Y-81761485D01*
X165947142Y-81761485D02*
X165899523Y-81951961D01*
X165899523Y-81951961D02*
X165804285Y-82047200D01*
X165804285Y-82047200D02*
X165709047Y-82094819D01*
X165709047Y-82094819D02*
X165518571Y-82094819D01*
X166899523Y-82094819D02*
X166328095Y-82094819D01*
X166613809Y-82094819D02*
X166613809Y-81094819D01*
X166613809Y-81094819D02*
X166518571Y-81237676D01*
X166518571Y-81237676D02*
X166423333Y-81332914D01*
X166423333Y-81332914D02*
X166328095Y-81380533D01*
X176124761Y-75560057D02*
X176029523Y-75512438D01*
X176029523Y-75512438D02*
X175934285Y-75417200D01*
X175934285Y-75417200D02*
X175791428Y-75274342D01*
X175791428Y-75274342D02*
X175696190Y-75226723D01*
X175696190Y-75226723D02*
X175600952Y-75226723D01*
X175648571Y-75464819D02*
X175553333Y-75417200D01*
X175553333Y-75417200D02*
X175458095Y-75321961D01*
X175458095Y-75321961D02*
X175410476Y-75131485D01*
X175410476Y-75131485D02*
X175410476Y-74798152D01*
X175410476Y-74798152D02*
X175458095Y-74607676D01*
X175458095Y-74607676D02*
X175553333Y-74512438D01*
X175553333Y-74512438D02*
X175648571Y-74464819D01*
X175648571Y-74464819D02*
X175839047Y-74464819D01*
X175839047Y-74464819D02*
X175934285Y-74512438D01*
X175934285Y-74512438D02*
X176029523Y-74607676D01*
X176029523Y-74607676D02*
X176077142Y-74798152D01*
X176077142Y-74798152D02*
X176077142Y-75131485D01*
X176077142Y-75131485D02*
X176029523Y-75321961D01*
X176029523Y-75321961D02*
X175934285Y-75417200D01*
X175934285Y-75417200D02*
X175839047Y-75464819D01*
X175839047Y-75464819D02*
X175648571Y-75464819D01*
X176458095Y-74560057D02*
X176505714Y-74512438D01*
X176505714Y-74512438D02*
X176600952Y-74464819D01*
X176600952Y-74464819D02*
X176839047Y-74464819D01*
X176839047Y-74464819D02*
X176934285Y-74512438D01*
X176934285Y-74512438D02*
X176981904Y-74560057D01*
X176981904Y-74560057D02*
X177029523Y-74655295D01*
X177029523Y-74655295D02*
X177029523Y-74750533D01*
X177029523Y-74750533D02*
X176981904Y-74893390D01*
X176981904Y-74893390D02*
X176410476Y-75464819D01*
X176410476Y-75464819D02*
X177029523Y-75464819D01*
X185714761Y-75660057D02*
X185619523Y-75612438D01*
X185619523Y-75612438D02*
X185524285Y-75517200D01*
X185524285Y-75517200D02*
X185381428Y-75374342D01*
X185381428Y-75374342D02*
X185286190Y-75326723D01*
X185286190Y-75326723D02*
X185190952Y-75326723D01*
X185238571Y-75564819D02*
X185143333Y-75517200D01*
X185143333Y-75517200D02*
X185048095Y-75421961D01*
X185048095Y-75421961D02*
X185000476Y-75231485D01*
X185000476Y-75231485D02*
X185000476Y-74898152D01*
X185000476Y-74898152D02*
X185048095Y-74707676D01*
X185048095Y-74707676D02*
X185143333Y-74612438D01*
X185143333Y-74612438D02*
X185238571Y-74564819D01*
X185238571Y-74564819D02*
X185429047Y-74564819D01*
X185429047Y-74564819D02*
X185524285Y-74612438D01*
X185524285Y-74612438D02*
X185619523Y-74707676D01*
X185619523Y-74707676D02*
X185667142Y-74898152D01*
X185667142Y-74898152D02*
X185667142Y-75231485D01*
X185667142Y-75231485D02*
X185619523Y-75421961D01*
X185619523Y-75421961D02*
X185524285Y-75517200D01*
X185524285Y-75517200D02*
X185429047Y-75564819D01*
X185429047Y-75564819D02*
X185238571Y-75564819D01*
X186000476Y-74564819D02*
X186619523Y-74564819D01*
X186619523Y-74564819D02*
X186286190Y-74945771D01*
X186286190Y-74945771D02*
X186429047Y-74945771D01*
X186429047Y-74945771D02*
X186524285Y-74993390D01*
X186524285Y-74993390D02*
X186571904Y-75041009D01*
X186571904Y-75041009D02*
X186619523Y-75136247D01*
X186619523Y-75136247D02*
X186619523Y-75374342D01*
X186619523Y-75374342D02*
X186571904Y-75469580D01*
X186571904Y-75469580D02*
X186524285Y-75517200D01*
X186524285Y-75517200D02*
X186429047Y-75564819D01*
X186429047Y-75564819D02*
X186143333Y-75564819D01*
X186143333Y-75564819D02*
X186048095Y-75517200D01*
X186048095Y-75517200D02*
X186000476Y-75469580D01*
X195074761Y-75820057D02*
X194979523Y-75772438D01*
X194979523Y-75772438D02*
X194884285Y-75677200D01*
X194884285Y-75677200D02*
X194741428Y-75534342D01*
X194741428Y-75534342D02*
X194646190Y-75486723D01*
X194646190Y-75486723D02*
X194550952Y-75486723D01*
X194598571Y-75724819D02*
X194503333Y-75677200D01*
X194503333Y-75677200D02*
X194408095Y-75581961D01*
X194408095Y-75581961D02*
X194360476Y-75391485D01*
X194360476Y-75391485D02*
X194360476Y-75058152D01*
X194360476Y-75058152D02*
X194408095Y-74867676D01*
X194408095Y-74867676D02*
X194503333Y-74772438D01*
X194503333Y-74772438D02*
X194598571Y-74724819D01*
X194598571Y-74724819D02*
X194789047Y-74724819D01*
X194789047Y-74724819D02*
X194884285Y-74772438D01*
X194884285Y-74772438D02*
X194979523Y-74867676D01*
X194979523Y-74867676D02*
X195027142Y-75058152D01*
X195027142Y-75058152D02*
X195027142Y-75391485D01*
X195027142Y-75391485D02*
X194979523Y-75581961D01*
X194979523Y-75581961D02*
X194884285Y-75677200D01*
X194884285Y-75677200D02*
X194789047Y-75724819D01*
X194789047Y-75724819D02*
X194598571Y-75724819D01*
X195884285Y-75058152D02*
X195884285Y-75724819D01*
X195646190Y-74677200D02*
X195408095Y-75391485D01*
X195408095Y-75391485D02*
X196027142Y-75391485D01*
X216754285Y-71661009D02*
X216897142Y-71708628D01*
X216897142Y-71708628D02*
X216944761Y-71756247D01*
X216944761Y-71756247D02*
X216992380Y-71851485D01*
X216992380Y-71851485D02*
X216992380Y-71994342D01*
X216992380Y-71994342D02*
X216944761Y-72089580D01*
X216944761Y-72089580D02*
X216897142Y-72137200D01*
X216897142Y-72137200D02*
X216801904Y-72184819D01*
X216801904Y-72184819D02*
X216420952Y-72184819D01*
X216420952Y-72184819D02*
X216420952Y-71184819D01*
X216420952Y-71184819D02*
X216754285Y-71184819D01*
X216754285Y-71184819D02*
X216849523Y-71232438D01*
X216849523Y-71232438D02*
X216897142Y-71280057D01*
X216897142Y-71280057D02*
X216944761Y-71375295D01*
X216944761Y-71375295D02*
X216944761Y-71470533D01*
X216944761Y-71470533D02*
X216897142Y-71565771D01*
X216897142Y-71565771D02*
X216849523Y-71613390D01*
X216849523Y-71613390D02*
X216754285Y-71661009D01*
X216754285Y-71661009D02*
X216420952Y-71661009D01*
X217278095Y-71184819D02*
X217849523Y-71184819D01*
X217563809Y-72184819D02*
X217563809Y-71184819D01*
X218135238Y-71280057D02*
X218182857Y-71232438D01*
X218182857Y-71232438D02*
X218278095Y-71184819D01*
X218278095Y-71184819D02*
X218516190Y-71184819D01*
X218516190Y-71184819D02*
X218611428Y-71232438D01*
X218611428Y-71232438D02*
X218659047Y-71280057D01*
X218659047Y-71280057D02*
X218706666Y-71375295D01*
X218706666Y-71375295D02*
X218706666Y-71470533D01*
X218706666Y-71470533D02*
X218659047Y-71613390D01*
X218659047Y-71613390D02*
X218087619Y-72184819D01*
X218087619Y-72184819D02*
X218706666Y-72184819D01*
X192406667Y-51247200D02*
X192549524Y-51294819D01*
X192549524Y-51294819D02*
X192787619Y-51294819D01*
X192787619Y-51294819D02*
X192882857Y-51247200D01*
X192882857Y-51247200D02*
X192930476Y-51199580D01*
X192930476Y-51199580D02*
X192978095Y-51104342D01*
X192978095Y-51104342D02*
X192978095Y-51009104D01*
X192978095Y-51009104D02*
X192930476Y-50913866D01*
X192930476Y-50913866D02*
X192882857Y-50866247D01*
X192882857Y-50866247D02*
X192787619Y-50818628D01*
X192787619Y-50818628D02*
X192597143Y-50771009D01*
X192597143Y-50771009D02*
X192501905Y-50723390D01*
X192501905Y-50723390D02*
X192454286Y-50675771D01*
X192454286Y-50675771D02*
X192406667Y-50580533D01*
X192406667Y-50580533D02*
X192406667Y-50485295D01*
X192406667Y-50485295D02*
X192454286Y-50390057D01*
X192454286Y-50390057D02*
X192501905Y-50342438D01*
X192501905Y-50342438D02*
X192597143Y-50294819D01*
X192597143Y-50294819D02*
X192835238Y-50294819D01*
X192835238Y-50294819D02*
X192978095Y-50342438D01*
X193311429Y-50294819D02*
X193549524Y-51294819D01*
X193549524Y-51294819D02*
X193740000Y-50580533D01*
X193740000Y-50580533D02*
X193930476Y-51294819D01*
X193930476Y-51294819D02*
X194168572Y-50294819D01*
X195073333Y-51294819D02*
X194501905Y-51294819D01*
X194787619Y-51294819D02*
X194787619Y-50294819D01*
X194787619Y-50294819D02*
X194692381Y-50437676D01*
X194692381Y-50437676D02*
X194597143Y-50532914D01*
X194597143Y-50532914D02*
X194501905Y-50580533D01*
X216694285Y-62281009D02*
X216837142Y-62328628D01*
X216837142Y-62328628D02*
X216884761Y-62376247D01*
X216884761Y-62376247D02*
X216932380Y-62471485D01*
X216932380Y-62471485D02*
X216932380Y-62614342D01*
X216932380Y-62614342D02*
X216884761Y-62709580D01*
X216884761Y-62709580D02*
X216837142Y-62757200D01*
X216837142Y-62757200D02*
X216741904Y-62804819D01*
X216741904Y-62804819D02*
X216360952Y-62804819D01*
X216360952Y-62804819D02*
X216360952Y-61804819D01*
X216360952Y-61804819D02*
X216694285Y-61804819D01*
X216694285Y-61804819D02*
X216789523Y-61852438D01*
X216789523Y-61852438D02*
X216837142Y-61900057D01*
X216837142Y-61900057D02*
X216884761Y-61995295D01*
X216884761Y-61995295D02*
X216884761Y-62090533D01*
X216884761Y-62090533D02*
X216837142Y-62185771D01*
X216837142Y-62185771D02*
X216789523Y-62233390D01*
X216789523Y-62233390D02*
X216694285Y-62281009D01*
X216694285Y-62281009D02*
X216360952Y-62281009D01*
X217218095Y-61804819D02*
X217789523Y-61804819D01*
X217503809Y-62804819D02*
X217503809Y-61804819D01*
X218646666Y-62804819D02*
X218075238Y-62804819D01*
X218360952Y-62804819D02*
X218360952Y-61804819D01*
X218360952Y-61804819D02*
X218265714Y-61947676D01*
X218265714Y-61947676D02*
X218170476Y-62042914D01*
X218170476Y-62042914D02*
X218075238Y-62090533D01*
%TO.C,R5*%
D29*
X166620000Y-64550000D02*
X163460000Y-64550000D01*
X168460000Y-64550000D02*
G75*
G02*
X166620000Y-64550000I-920000J0D01*
G01*
X166620000Y-64550000D02*
G75*
G02*
X168460000Y-64550000I920000J0D01*
G01*
%TO.C,D4*%
X193620000Y-69334000D02*
X193620000Y-69490000D01*
X193620000Y-71650000D02*
X193620000Y-71806000D01*
X193620000Y-69334484D02*
G75*
G02*
X196851437Y-69490000I1560000J-1235516D01*
G01*
X194139039Y-69490000D02*
G75*
G02*
X196220961Y-69490000I1040961J-1080000D01*
G01*
X196220961Y-71650000D02*
G75*
G02*
X194139039Y-71650000I-1040961J1080000D01*
G01*
X196851437Y-71650000D02*
G75*
G02*
X193620000Y-71805516I-1671437J1080000D01*
G01*
%TO.C,D3*%
X184270000Y-69304000D02*
X184270000Y-69460000D01*
X184270000Y-71620000D02*
X184270000Y-71776000D01*
X184270000Y-69304484D02*
G75*
G02*
X187501437Y-69460000I1560000J-1235516D01*
G01*
X184789039Y-69460000D02*
G75*
G02*
X186870961Y-69460000I1040961J-1080000D01*
G01*
X186870961Y-71620000D02*
G75*
G02*
X184789039Y-71620000I-1040961J1080000D01*
G01*
X187501437Y-71620000D02*
G75*
G02*
X184270000Y-71775516I-1671437J1080000D01*
G01*
%TO.C,D2*%
X174400000Y-69444000D02*
X174400000Y-69600000D01*
X174400000Y-71760000D02*
X174400000Y-71916000D01*
X174400000Y-69444484D02*
G75*
G02*
X177631437Y-69600000I1560000J-1235516D01*
G01*
X174919039Y-69600000D02*
G75*
G02*
X177000961Y-69600000I1040961J-1080000D01*
G01*
X177000961Y-71760000D02*
G75*
G02*
X174919039Y-71760000I-1040961J1080000D01*
G01*
X177631437Y-71760000D02*
G75*
G02*
X174400000Y-71915516I-1671437J1080000D01*
G01*
%TO.C,D1*%
X164480000Y-69234000D02*
X164480000Y-69390000D01*
X164480000Y-71550000D02*
X164480000Y-71706000D01*
X164480000Y-69234484D02*
G75*
G02*
X167711437Y-69390000I1560000J-1235516D01*
G01*
X164999039Y-69390000D02*
G75*
G02*
X167080961Y-69390000I1040961J-1080000D01*
G01*
X167080961Y-71550000D02*
G75*
G02*
X164999039Y-71550000I-1040961J1080000D01*
G01*
X167711437Y-71550000D02*
G75*
G02*
X164480000Y-71705516I-1671437J1080000D01*
G01*
%TO.C,C4*%
X188340000Y-57530000D02*
X183100000Y-57530000D01*
X188340000Y-54790000D02*
X188340000Y-57530000D01*
X183100000Y-57530000D02*
X183100000Y-54790000D01*
X183100000Y-54790000D02*
X188340000Y-54790000D01*
%TO.C,C3*%
X177240000Y-54980000D02*
X182480000Y-54980000D01*
X177240000Y-57720000D02*
X177240000Y-54980000D01*
X182480000Y-54980000D02*
X182480000Y-57720000D01*
X182480000Y-57720000D02*
X177240000Y-57720000D01*
%TO.C,C1*%
X165310000Y-55110000D02*
X170550000Y-55110000D01*
X165310000Y-57850000D02*
X165310000Y-55110000D01*
X170550000Y-55110000D02*
X170550000Y-57850000D01*
X170550000Y-57850000D02*
X165310000Y-57850000D01*
%TO.C,C2*%
X171270000Y-55010000D02*
X176510000Y-55010000D01*
X171270000Y-57750000D02*
X171270000Y-55010000D01*
X176510000Y-55010000D02*
X176510000Y-57750000D01*
X176510000Y-57750000D02*
X171270000Y-57750000D01*
%TO.C,R8*%
X192750000Y-64140000D02*
G75*
G02*
X190910000Y-64140000I-920000J0D01*
G01*
X190910000Y-64140000D02*
G75*
G02*
X192750000Y-64140000I920000J0D01*
G01*
X192750000Y-64140000D02*
X195910000Y-64140000D01*
%TO.C,R7*%
X189310000Y-64280000D02*
G75*
G02*
X187470000Y-64280000I-920000J0D01*
G01*
X187470000Y-64280000D02*
G75*
G02*
X189310000Y-64280000I920000J0D01*
G01*
X187470000Y-64280000D02*
X184310000Y-64280000D01*
%TO.C,R6*%
X177720000Y-64510000D02*
X174560000Y-64510000D01*
X179560000Y-64510000D02*
G75*
G02*
X177720000Y-64510000I-920000J0D01*
G01*
X177720000Y-64510000D02*
G75*
G02*
X179560000Y-64510000I920000J0D01*
G01*
%TO.C,R4*%
X193320000Y-84900000D02*
G75*
G02*
X191480000Y-84900000I-920000J0D01*
G01*
X191480000Y-84900000D02*
G75*
G02*
X193320000Y-84900000I920000J0D01*
G01*
X193320000Y-84900000D02*
X196480000Y-84900000D01*
%TO.C,R3*%
X184070000Y-84940000D02*
G75*
G02*
X182230000Y-84940000I-920000J0D01*
G01*
X182230000Y-84940000D02*
G75*
G02*
X184070000Y-84940000I920000J0D01*
G01*
X184070000Y-84940000D02*
X187230000Y-84940000D01*
%TO.C,R2*%
X174550000Y-84890000D02*
G75*
G02*
X172710000Y-84890000I-920000J0D01*
G01*
X172710000Y-84890000D02*
G75*
G02*
X174550000Y-84890000I920000J0D01*
G01*
X174550000Y-84890000D02*
X177710000Y-84890000D01*
%TO.C,R1*%
X164110000Y-84920000D02*
G75*
G02*
X162270000Y-84920000I-920000J0D01*
G01*
X162270000Y-84920000D02*
G75*
G02*
X164110000Y-84920000I920000J0D01*
G01*
X164110000Y-84920000D02*
X167270000Y-84920000D01*
%TO.C,Q1*%
X166090000Y-80680000D02*
G75*
G02*
X164251522Y-76241522I0J2600000D01*
G01*
X167928478Y-76241522D02*
G75*
G02*
X166090000Y-80680001I-1838478J-1838478D01*
G01*
X167890000Y-76230000D02*
X164290000Y-76230000D01*
%TO.C,Q2*%
X176220000Y-75970000D02*
G75*
G02*
X178058478Y-80408478I0J-2600000D01*
G01*
X174381522Y-80408478D02*
G75*
G02*
X176220000Y-75969999I1838478J1838478D01*
G01*
X174420000Y-80420000D02*
X178020000Y-80420000D01*
%TO.C,Q3*%
X185810000Y-76070000D02*
G75*
G02*
X187648478Y-80508478I0J-2600000D01*
G01*
X183971522Y-80508478D02*
G75*
G02*
X185810000Y-76069999I1838478J1838478D01*
G01*
X184010000Y-80520000D02*
X187610000Y-80520000D01*
%TO.C,Q4*%
X195170000Y-76230000D02*
G75*
G02*
X197008478Y-80668478I0J-2600000D01*
G01*
X193331522Y-80668478D02*
G75*
G02*
X195170000Y-76229999I1838478J1838478D01*
G01*
X193370000Y-80680000D02*
X196970000Y-80680000D01*
%TO.C,BT2*%
X206848000Y-75740000D02*
G75*
G02*
X209694629Y-71238211I10692020J-3610012D01*
G01*
X209694629Y-87461789D02*
G75*
G02*
X206848000Y-82960000I7845371J8111789D01*
G01*
X225385371Y-71238211D02*
G75*
G02*
X228232000Y-75740000I-7845366J-8111785D01*
G01*
X228232000Y-82960000D02*
G75*
G02*
X225385372Y-87461790I-10692020J3610010D01*
G01*
X203230000Y-75740000D02*
X206848000Y-75740000D01*
X203230000Y-77450000D02*
X203230000Y-75740000D01*
X203230000Y-81250000D02*
X203230000Y-82960000D01*
X206848000Y-82960000D02*
X203230000Y-82960000D01*
X209692700Y-71240000D02*
X213680000Y-71240000D01*
X215880000Y-73440000D02*
X213680000Y-71240000D01*
X215880000Y-73440000D02*
X219200000Y-73440000D01*
X219200000Y-73440000D02*
X221400000Y-71240000D01*
X221400000Y-71240000D02*
X225387300Y-71240000D01*
X225387300Y-87460000D02*
X209692700Y-87460000D01*
X228232000Y-75740000D02*
X231850000Y-75740000D01*
X231850000Y-77450000D02*
X231850000Y-75740000D01*
X231850000Y-81250000D02*
X231850000Y-82960000D01*
X231850000Y-82960000D02*
X228232000Y-82960000D01*
%TO.C,SW1*%
X197240000Y-55840000D02*
X197240000Y-54340000D01*
X195990000Y-51840000D02*
X191490000Y-51840000D01*
X191490000Y-58340000D02*
X195990000Y-58340000D01*
X190240000Y-54340000D02*
X190240000Y-55840000D01*
%TO.C,BT1*%
X203170000Y-51120000D02*
X206788000Y-51120000D01*
X203170000Y-52830000D02*
X203170000Y-51120000D01*
X203170000Y-56630000D02*
X203170000Y-58340000D01*
X206788000Y-58340000D02*
X203170000Y-58340000D01*
X209632700Y-46620000D02*
X225327300Y-46620000D01*
X213620000Y-62840000D02*
X209632700Y-62840000D01*
X215820000Y-60640000D02*
X213620000Y-62840000D01*
X219140000Y-60640000D02*
X215820000Y-60640000D01*
X219140000Y-60640000D02*
X221340000Y-62840000D01*
X225327300Y-62840000D02*
X221340000Y-62840000D01*
X228172000Y-51120000D02*
X231790000Y-51120000D01*
X231790000Y-52830000D02*
X231790000Y-51120000D01*
X231790000Y-56630000D02*
X231790000Y-58340000D01*
X231790000Y-58340000D02*
X228172000Y-58340000D01*
X206788000Y-51120000D02*
G75*
G02*
X209634628Y-46618210I10692020J-3610010D01*
G01*
X209634629Y-62841789D02*
G75*
G02*
X206788000Y-58340000I7845366J8111785D01*
G01*
X225325371Y-46618211D02*
G75*
G02*
X228172000Y-51120000I-7845371J-8111789D01*
G01*
X228172000Y-58340000D02*
G75*
G02*
X225325371Y-62841789I-10692020J3610012D01*
G01*
%TD*%
D30*
X237050000Y-53058115D02*
X237050000Y-82810196D01*
X222080227Y-97810166D02*
X172642630Y-97909788D01*
X157537668Y-53089460D02*
X157612450Y-82947388D01*
X222051886Y-38058115D02*
X172539507Y-38051891D01*
X222051886Y-38058115D02*
G75*
G02*
X237049985Y-53058115I-1886J-14999985D01*
G01*
X157537668Y-53089460D02*
G75*
G02*
X172539507Y-38051921I14999932J37560D01*
G01*
X172642630Y-97909788D02*
G75*
G02*
X157612429Y-82947388I-30230J14999988D01*
G01*
X237050000Y-82810196D02*
G75*
G02*
X222080227Y-97810170I-15000000J-4D01*
G01*
M02*
