M48
; DRILL file KiCad 10.0.5 date 2026-09-05T16:00:49
; FORMAT={-:-/ absolute / metric / decimal}
; #@! TF.CreationDate,2026-09-05T16:00:49-04:00
; #@! TF.GenerationSoftware,Kicad,Pcbnew,10.0.5
; #@! TF.FileFunction,Plated,1,2,PTH
FMAT,2
METRIC
; #@! TA.AperFunction,Plated,PTH,ComponentDrill
T1C0.750
; #@! TA.AperFunction,Plated,PTH,ComponentDrill
T2C0.800
; #@! TA.AperFunction,Plated,PTH,ComponentDrill
T3C0.900
; #@! TA.AperFunction,Plated,PTH,ComponentDrill
T4C1.100
%
G90
G05
T1
X180.16Y-63.57
X181.43Y-63.57
X182.7Y-63.57
X189.4Y-64.09
X190.67Y-64.09
X191.94Y-64.09
X196.27Y-64.23
X197.54Y-64.23
X198.81Y-64.23
T2
X159.69Y-51.34
X159.69Y-58.96
X161.49Y-61.41
X161.49Y-69.03
X165.975Y-75.975
X165.98Y-62.4
X165.98Y-64.94
X165.98Y-67.48
X165.98Y-70.02
X173.595Y-75.975
X173.6Y-62.4
X173.6Y-64.94
X173.6Y-67.48
X173.6Y-70.02
X175.38Y-50.7
X175.38Y-58.32
X176.94Y-75.68
X179.44Y-75.68
X181.78Y-70.79
X189.28Y-50.72
X189.28Y-58.34
X189.4Y-70.79
X192.85Y-71.67
X200.47Y-71.67
X202.11Y-64.43
X204.61Y-64.43
X204.96Y-69.32
X204.96Y-76.94
T3
X168.3Y-54.07
X170.84Y-54.07
X182.02Y-53.44
X184.56Y-53.44
X193.92Y-53.21
X196.46Y-53.21
T4
X200.17Y-51.18
X200.17Y-55.68
X206.67Y-51.18
X206.67Y-55.68
M30
